<?xml version="1.0" encoding="UTF-8"?>
<svg viewBox="0 0 744.09448819 1052.3622047" xmlns="http://www.w3.org/2000/svg">
 <g transform="matrix(3.329 0 0 3.329 -1322.4 -1007.4)">
  <path d="m535.38 422.84c-0.42366 0-37.234 1.5859-39.785 5.3924s-2.6876 11.736 0 12.212 40.35-0.15917 40.35-0.15917l29.732-0.15918s-4.1043-9.9909 0.56926-13.321c0 0-27.891-3.9647-30.866-3.9647z" fill="#26231f"/>
  <path d="m535.24 446.79s-40.35-0.47656-42.901 1.9028-7.6437 20.618 1.1342 22.045 44.741-1.744 44.741-1.744l32.137-1.5869s-4.1043-16.018 0.28245-19.983l-35.394-0.63376z" fill="#26231f"/>
  <path d="m482.43 479.14s4.5279 11.26-0.85175 16.018c0 0 43.889 2.3794 46.299-1.2685s1.699-16.494-0.28244-17.287-43.042 2.6967-45.165 2.5375z" fill="#26231f"/>
  <path d="m495.56 501.94c-1.9594 3.4496-3.6409 18.814 0 19.754s38.068-0.62727 38.068-0.62727l31.629-9.72s-5.0399-10.347-1.6814-14.424c0 0-66.057 1.5676-68.016 5.0172z" fill="#26231f"/>
  <path d="m534.14 525.64s-56.405 2.41-58.554 5.3543-3.5835 10.177 0.95767 11.245 56.401-0.26691 58.793-1.6066 39.675-12.047 39.675-12.047-5.4989-6.9605-2.8686-11.512-38.002 8.5667-38.002 8.5667z" fill="#26231f"/>
  <path d="m471.76 549.47s6.6948 12.047-2.3875 17.401c0 0 61.185 5.8928 64.292 2.6794s13.862-19.542-0.71934-21.687c-14.577-2.1406-58.078-1.0678-61.185 1.6066z" fill="#26231f"/>
  <path d="m538.44 578.65s-65.249-5.0869-70.029-0.80083c-4.7795 4.2811-5.2561 16.6 0.2383 18.474 5.4988 1.8736 70.029 9.9019 70.029 9.9019l29.639-14.188s-9.3251-14.994 0.71486-27.575l-30.592 14.188z" fill="#26231f"/>
  <path d="m540.11 573.56s-67.398-4.0142-72.655-3.2133c-5.2605 0.80581-19.392 15.864-2.3169 31.367 0.48984 0.44484 73.038 15.503 74.415 10.881 0.95759-3.2133 1.9903-7.707-0.15895-8.5128-2.1537-0.80083-70.267-9.368-70.267-9.368s-7.8863-14.46 1.9109-16.6c8.4778-1.8538 65.726 4.553 67.637 2.6794 1.9109-1.8785 2.8686-7.7663 1.4343-7.2324z" fill="#26231f"/>
  <path d="m540.11062,573.56073c0,0 .0662-.0643.2295-.0544 .17644,0 .37946.2373.44564.5784 .15009.68221.0795,1.7253-.22501,3.0205-.15445.64267-.37072,1.35948-.70611,2.10102-.16769.37076-.36634.74647-.61345,1.1123-.12799.18291-.26484.36087-.42367.52401-.075.0989-.22063.17796-.32215.20762l-.33101.084c-.87818.15324-1.80941.16313-2.8112.17797s-2.06538-.01-3.19078-.0445c-9.01171-.28177-22.00859-1.35947-38.07713-2.3729-4.01601-.24223-8.22619-.48447-12.61293-.63277-2.19336-.0692-4.43081-.11865-6.70359-.0643-1.12978.0346-2.28165.0791-3.39381.2719-1.09881.20268-2.19774.613-3.06717,1.36442-.88262.73658-1.45633,1.85874-1.66816,3.09958-.22066,1.25073-.13681,2.58054.0927,3.88561s.60462,2.60034 1.068,3.87087c.22954.6328.48102,1.26052.75023,1.88342 .13684.31145.27807.61794.42366.92444l.22064.45486 .16769.33124 15.1815,1.91311 33.18283,4.26623c5.75038.7663 11.60228,1.53756 17.54245,2.40261l2.2287.34114 1.12091.19279 .57375.10876c.17655.0297.45462.11866.65316.24216 .43253.24228.77229.68723.95771,1.15187 .18093.46476.26472.93929.29119,1.3991 .0574.92444-.0441,1.80434-.1853,2.65962-.1456.8601-.34425,1.70053-.56489,2.5261-.11038.41527-.2295.82558-.34862,1.23589-.0397.15826-.17219.38062-.28245.47949-.11924.11866-.23387.1929-.34425.25217-.22063.11867-.42804.18784-.63106.24228-.81649.20763-1.59315.24216-2.3743.27185-.77678.0247-1.55344.01-2.32584-.0198-3.09364-.12857-6.13871-.46464-9.15731-.83053s-6.01084-.80083-8.97649-1.25074c-5.93131-.90959-11.76122-1.91806-17.48064-2.95127-5.71954-1.03815-11.3287-2.11084-16.81436-3.20344-5.49003-1.10733-10.85208-2.17506-16.08612-3.40117l-.24715-.0692-.13239-.0345c-.0618-.0198-.15005-.0495-.21624-.094-.15005-.1235-.17212-.1532-.24714-.22237l-.19418-.17805c-.25597-.24216-.51193-.48444-.76349-.73166-.49869-.49928-.98856-1.00846-1.45636-1.53744-.94-1.06279-1.81382-2.18496-2.58172-3.39128-1.5402-2.39754-2.66557-5.15108-3.00539-8.04802-.35747-2.89199.11474-5.83336 1.16067-8.37933 1.04152-2.56077 2.59497-4.77547 4.4088-6.55515 .91353-.88984 1.89767-1.67587 2.97008-2.28886 .534-.3065 1.09448-.56357 1.69466-.73165 .61785-.17302 1.21362-.16808 1.78737-.19279 2.29925-.0494 4.5367.0198 6.73893.0791 4.39111.13348 8.60578.31639 12.63065.50424 16.08603.76626 29.09615,1.56216 38.08588,2.12079s13.95896.92938 13.95459.9986-4.9781-.1582-13.9722-.60806c-8.9941-.43504-22.00871-1.11724-38.09486-1.79451-4.02038-.16314-8.23493-.32628-12.62167-.43998-2.19336-.0494-4.43968-.10381-6.70371-.0494-.56926.0247-1.12975.0297-1.63285.17796-.51635.14831-1.03269.3856-1.53139.67232-1.0018.5784-1.94181,1.32982-2.81121,2.18506-1.73439,1.71046-3.21281,3.84607-4.19695,6.2783s-1.41664,5.18573-1.07683,7.89979c.32216,2.72384 1.39457,5.33408 2.87741,7.63782 .74142,1.15671 1.58875,2.24436 2.50228,3.27262 .45898.50918.93561,1.00846 1.42547,1.49289 .24273.24228.49428.47961.74584.71187l.32657.30155c.004.005 0,.005.0177.01l.11033.0297 .2339.0593c5.18554,1.20631 10.56957,2.2691 16.05086,3.3617 5.48117,1.08258 11.09033,2.14549 16.80549,3.17375s11.53609,2.03177 17.45854,2.93147c2.96128.4499 5.94466.88001 8.9544,1.25074 3.00985.36093 6.04605.69701 9.09124.82062 .75905.0297 1.52248.0446 2.27278.0198s1.50487-.0692 2.18451-.24227c.16332-.0444.32215-.10382.44576-.16804 .0618-.0347.11038-.0692.13685-.0939 .0308-.0445.009,0 .0265-.0495 .11912-.40042.23387-.80083.34425-1.2062 .21177-.80083.40157-1.61156.5383-2.42229s.22513-1.62157.17656-2.39271c-.0441-.77125-.27359-1.47322-.76343-1.73022-.13247-.0742-.22064-.10877-.41492-.14836l-.53841-.10382-1.10768-.18783-2.21984-.34609c-5.92693-.86506-11.77883-1.64621-17.52921-2.4124l-33.17408-4.32561-7.82899-1.00847-3.83509-.48938-1.90206-.24228-.94447-.12361-.46775-.0593-.30454-.0396-.22063-.0297c-.0397.005-.0707-.01-.0839-.0543l-.0573-.10876-.18541-.35104-.11475-.23721-.2295-.4697c-.14997-.3164-.29119-.6328-.43242-.95403-.27365-.63774-.53401-1.28538-.76792-1.93797-.47221-1.31001-.86058-2.65467-1.09888-4.0388-.23832-1.37435-.33541-2.80797-.0839-4.21685 .23831-1.3991.93119-2.74863 1.95941-3.59892 1.01951-.87007 2.22433-1.29521 3.41142-1.51767 1.18721-.19281 2.34345-.23235 3.49532-.26201 2.29488-.0445 4.54119.0148 6.73893.0939 4.3956.16808 8.61015.43008 12.62616.70198 16.07291,1.10241 29.06093,2.28887 38.05066,2.68929 1.1254.0494 2.18451.084 3.18192.0939 .98855,0 1.92853,0 2.76712-.12854 .2074-.0445.4148-.0742.52069-.20763 .15008-.1483.28244-.31143.40156-.48447 .24723-.34109.44139-.70197.61346-1.05792 .33539-.71186.56489-1.4089.72821-2.03673 .32652-1.2606.42366-2.28886.31329-2.94142-.053-.32627-.21178-.5339-.36186-.54872-.1456-.0297-.22501.0148-.22501,0z" fill="#26231f"/>
  <path d="m537 574.37s33.223-20.615 35.372-18.474 1.1386 6.4217-0.29567 7.7614-32.406 18.781-33.704 17.871c-2.1801-1.5277-1.3725-7.1583-1.3725-7.1583z" fill="#26231f"/>
  <path d="m537.72 604.08s31.55-16.329 32.984-14.188-0.0794 6.565-0.0794 6.565-29.555 16.68-31.228 16.68-3.1069-9.0566-1.677-9.0566z" fill="#26231f"/>
  <path d="m572.14 532.33s12.666 7.7648 4.7794 21.147c0 0-35.381 20.506-38.006 20.506s-71.935-1.226-74.084-3.9054c-2.1536-2.6745 1.196-5.0869 1.196-5.0869s65.245 3.4802 66.917 2.4124c0 0 4.3028-13.926-2.8686-17.134s-60.227 0.53392-60.227 0.53392-3.1069-4.553 1.196-4.82c0.95326-0.0594 62.857-3.4804 65.487-3.4804s35.134-12.581 35.61-10.172z" fill="#26231f"/>
  <path d="m534.86 521.36s2.6259 6.1572-0.48099 6.4246-55.686 1.8751-57.12 4.552-1.9109 7.7649 0.95766 7.7649c2.8642 0 56.162-4.0191 56.643-2.4125s-0.24274 5.3539-0.24274 5.3539-59.132 4.8002-61.524 3.1935-4.4132-12.71-2.9789-15.119 18.138-8.9552 22.679-8.1514 42.067-1.6057 42.067-1.6057z" fill="#26231f"/>
  <path d="m534.85 521.36s37.998-10.709 39.432-8.5677 1.677 3.2128-0.23825 4.2841c-1.9109 1.0708-39.198 11.78-39.675 10.708s-1.196-4.8185 0.23831-5.3539l0.24273-1.0708z" fill="#26231f"/>
  <path d="m533.66 537.68s42.305-13.385 43.258-10.975c0.95771 2.41 0.95771 4.552-1.4343 5.3549s-41.109 12.581-42.305 12.047c-1.1916-0.53392 0.48104-6.4267 0.48104-6.4267z" fill="#26231f"/>
  <path d="m533.34 495.99s-38.346-0.31342-41.144 3.1352-10.848 21.509-3.5703 24.958 43.598 0.12706 44.437-1.1271 0-5.0168 0-5.0168-35.548 3.4492-37.23 1.2542-2.5199-14.11 0.84296-15.991 35.548-0.62635 36.387-1.5676c0 0 2.798-7.2121 0.27796-5.644z" fill="#26231f"/>
  <path d="m533.34 495.99s33.593-6.2709 34.432-3.763-1.6814 4.7033-1.6814 4.7033-31.347 5.0177-33.028 4.7038-2.2419-5.9575 0.27804-5.6441z" fill="#26231f"/>
  <path d="m533.06 517.94s33.311-11.602 34.427-8.7793 0.28244 4.0764 0.28244 4.0764-32.75 9.7195-34.71 9.7195 0-5.0166 0-5.0166z" fill="#26231f"/>
  <path d="m482.43 473.43s46.864-3.1728 49.269 0.79245 3.5394 20.618 1.1342 22.362-51.396 5.7094-52.389 3.8065-0.28245-6.8196-0.28245-6.8196 44.176 1.7446 45.875 0.15918 1.8403-14.751 0.28245-16.019-44.459 3.4892-45.306 1.9038-0.14122-6.0267 1.4166-6.1854z" fill="#26231f"/>
  <path d="m526.61 472.64s45.165-2.0629 46.017-0.47655 2.1227 17.287-1.5579 19.508l-3.685 1.268s-33.554 4.9163-35.818 3.8065-5.8034-24.265-4.956-24.106z" fill="#26231f"/>
  <path d="m535.67 447.58c-0.42367 1.1103-39.216 0.79294-42.473 1.9038s-1.5579 17.127-0.28244 19.348c1.271 2.2211 45.023-1.7451 45.023-1.7451s0.28245 3.8065-0.28681 5.2337c-0.56489 1.4273-41.056 3.8065-47.146 0.63429s-3.5394-25.375-0.28244-27.119c3.0319-1.6235 39.666-2.8346 44.728-2.9953l0.57813-0.0188 0.14122 4.7587z" fill="#26231f"/>
  <path d="m534.95 442.84s37.53-0.33517 38.523 1.2507-0.70611 3.8065-0.70611 3.8065-37.945 1.9028-38.796 0.47558-0.98856-4.7582 0.71052-4.9164l0.26921-0.61646z" fill="#26231f"/>
  <path d="m537.08 467.25c0.42368 0 32.989-3.3305 33.84-0.79245s-0.1456 5.2342-0.1456 5.2342-32.843 2.5365-33.695 1.4267-1.8403-4.4408-0.28244-5.2332l0.28244-0.63525z" fill="#26231f"/>
  <path d="m536.24 418.88s-42.901 3.33-44.459 5.7093-4.956 17.604 1.2754 19.19 44.031-0.79346 44.031-0.79346l-0.28245-4.9163s-40.491 2.5375-41.343 0.31778-0.98856-8.7233 1.1342-9.8332 38.792-2.8554 38.933-4.4413 2.8333-5.3924 0.71048-5.2332z" fill="#26231f"/>
  <path d="m536.24 418.88s32.419 3.3305 32.561 5.8685-0.84733 3.0131-0.84733 3.0131-32.989-2.3793-33.412-3.6484c-0.42808-1.2685 0.42367-5.0755 1.6991-5.2332z" fill="#26231f"/>
  <path d="m535.53 438.54c1.5711-0.58729 29.873-1.1103 31.29 0.47508s2.264 3.806-0.28244 4.2826-31.431 0.63376-31.854 0.15868c-0.42808-0.47606-0.42808-4.4413 0.84733-4.9164z" fill="#26231f"/>
  <path d="m469.16 578.34s-6.3109 6.1597 0.16329 15.77c13.032 2.5361 66.82 9.9959 66.82 9.9959s-5.0664-17.99-0.53404-21.974c0 0-60.783-7.5982-66.123-4.5184s-0.32657 0.7267-0.32657 0.7267z" fill="#fefbde"/>
  <path d="m540.21 581.92s-1.8403 1.1666-2.2684 3.8411c-1.1342 7.0694 1.4564 16.497 1.4564 16.497l26.373-11.963s-6.3109-9.7882-1.6152-21.752l-23.946 13.377z" fill="#d9b68b"/>
  <path d="m538.1 547.52s1.7829 18.128-2.7494 25.197c0 0 39.807-19.394 40.778-20.847s4.4221-7.4598-1.6196-13.051c-3.7203-3.4407-36.409 8.7007-36.409 8.7007z" fill="#2c559e"/>
  <path d="m470.13 547.16s-0.80762 2.536 0.16328 2.536 39.485-4.1674 62.623 0.18292c1.7166 0.32132 2.7494-3.8065 1.7784-3.8065s-52.429-1.8143-64.565 1.0876z" fill="#078cc9"/>
  <path d="m466.58 566.19s-1.7829 1.9922-0.32658 3.2627 63.29 3.8906 66.185 3.0848c1.2931-0.36582 0.16332-2.9019 0.16332-2.9019s-60.682-0.90961-66.022-3.4456z" fill="#078cc9"/>
  <path d="m474.5 551.51s4.8545 9.0615-0.9709 13.778l60.037 1.9923s3.5571-5.7987 0.64441-13.773c-2.4274-6.654-52.429-2.7189-59.711-1.9972z" fill="#fefbde"/>
  <path d="m534.3 523.03s1.5712 3.3399-0.15883 3.3399-56.189 2.1104-58.387 5.4508-0.31333 8.0886 1.7256 10.022 57.133-2.2839 57.133-2.2839l-0.3134 4.2168s-58.073 1.582-59.331 1.2309c-1.2533-0.35092-3.2967-10.372-3.1378-12.307 0.15888-1.9339 9.5722-5.4498 9.5722-5.4498l52.897-4.2193z" fill="#009935"/>
  <path d="m536.19 522.85s0.0309 0.70445 1.1298 0.70445 35.491-7.1494 35.491-8.2043 0.26483-1.2908 0.26483-1.2908-36.886 8.4391-36.886 8.7906z" fill="#007429"/>
  <path d="m537.32 539.33s-1.0371 1.7895 0.84292 1.2606 36.952-8.6008 37.737-9.8312-1.9595-1.2122-1.9595-1.2122-36.462 8.5518-36.621 9.7828z" fill="#007429"/>
  <path d="m478.25 534.46s-0.43249 4.3108 2.3964 5.3637c2.8244 1.053 53.651-1.8488 53.651-1.8488s-2.67-7.2112-0.15883-9.321 0.2295-0.87008 0.2295-0.87008-54.547 4.0374-56.118 6.6763z" fill="#fefbde"/>
  <path d="m537.44 527.77s-5.0222 2.9889-1.5667 9.493l36.727-10.196s-4.3956-4.2198-2.3567-8.0876l-32.803 8.7906z" fill="#d9b68b"/>
  <path d="m533.36 519.51s0.78115 2.4619-0.31778 2.4619-37.667 2.8134-40.491 1.5824c-2.8289-1.2305-4.0822-4.9227-3.9278-7.3842 0.15888-2.4614 2.3566-14.594 4.7089-15.824 2.3566-1.2309 39.242-3.3399 39.242-1.7579s-1.0989 1.9334-1.0989 1.9334-34.847-0.52748-36.572 1.5824-2.9833 13.89-0.78555 16.352 4.7089 2.8124 4.7089 2.8124l34.533-1.7584z" fill="#302980"/>
  <path d="m535.87 518.8s-0.0309 1.1375 0.6002 0.96251 29.855-7.8889 30.632-6.7648c0.39719 0.57346-1.0989-2.4609-1.0989-2.4609s-28.721 6.5052-30.133 8.2631z" fill="#21276e"/>
  <path d="m534.77 498.41s-0.15887 2.2859 0.31334 1.9344 31.078-3.8683 31.232-4.3958c0.15895-0.52699-0.15445-1.5819-0.15445-1.5819s-31.078 3.6914-31.391 4.0433z" fill="#21276e"/>
  <path d="m535.4 502.81c-0.15888 0.52747-3.7689 8.4391 0 13.362l27.622-6.5057s-5.8519-6.8616-2.7142-9.674l-24.908 2.8173z" fill="#d9b68b"/>
  <path d="m534.77 502.28s-5.8078 8.4391 0 15.12c0 0-35.001 3.5163-37.826 1.7578-2.8289-1.7578-3.2967-13.713-1.0989-16.175l38.924-0.70347z" fill="#fefbde"/>
  <path d="m481.58 495.16s-1.2136 3.8565 0.30893 4.0122c1.527 0.15523 41.365-1.71 42.336-2.4876s-0.14122-1.0886-0.14122-1.0886-34.56 1.2438-42.504-0.43602z" fill="#ee7500"/>
  <path d="m484.25 480.2s4.9958 7.1518-0.27803 13.371c0 0 39.569 1.5617 41.361 0.31145 5.1369-3.5761 1.3901-15.393 1.3901-15.393-1.9418-0.6214-42.473 1.7105-42.473 1.7105z" fill="#fefbde"/>
  <path d="m533.88 449.32s-3.2834 12.782-1.7211 18.561c0 0-37.203 1.576-38.924-0.52552s-1.7167-16.809 0.62668-17.685 40.019-0.3505 40.019-0.3505z" fill="#fefbde"/>
  <path d="m535.44 449.49s-3.7512 11.907-1.7212 16.809l32.711-2.7031s-1.4476-11.13 1.9903-14.807l-32.98 0.7005z" fill="#d9b68b"/>
  <path d="m534.5 420.43s0.93998 2.977-0.46775 2.977-36.841 2.3067-38.43 4.8308-3.4644 9.7027 0.13241 11.628 40.217 0.42459 40.217 0.42459-0.51194 2.2019-1.6064 2.2019-39.706 1.0505-41.581-0.17506-2.6568-14.358 0-16.11 41.736-5.778 41.736-5.778z" fill="#ca0178"/>
  <path d="m536.06 419.9s-1.0945 2.977 0.15888 3.152 31.104 3.852 31.104 3.852l0.15883-1.575s-29.546-6.304-31.422-5.429z" fill="#b00179"/>
  <path d="m538.09 439.51s-1.3946 3.6152-1.0106 3.4709 28.99 0.38164 29.304-0.31886 1.2489-2.6211-0.70611-2.5365c-1.9506 0.0845-26.179-1.315-27.587-0.61547z" fill="#b00179"/>
  <path d="m535.12 425.15s-0.71048 8.666 1.677 12.913c0 0-39.348 2.1461-40.601 0.57052s-1.8756-8.4045 0.47221-9.4555c2.3434-1.051 38.452-4.0275 38.452-4.0275z" fill="#fefbde"/>
  <path d="m536.37 425.5s-0.31334 10.506 1.8756 11.907 25.482 0.70046 25.482 0.70046-3.2834-7.8795-0.15894-10.331l-27.199-2.2765z" fill="#d9b68b"/>
  <path d="m528.99 590.06c-0.0397 0.14831-2.5685-0.63771-6.7301-1.4584-2.0786-0.41031-4.5677-0.81568-7.3436-1.1667s-5.8387-0.64761-9.0603-0.92938-6.2977-0.53886-9.0912-0.84535-5.309-0.6575-7.4053-1.0332c-4.2014-0.75142-6.739-1.572-6.7125-1.6956 0.0309-0.14831 2.6038 0.4202 6.8007 0.98376 2.0963 0.28673 4.603 0.56357 7.3921 0.81568l9.0869 0.76626c3.226 0.28178 6.302 0.60311 9.0911 1.0085 2.7847 0.40536 5.287 0.88983 7.3656 1.3941 4.1617 1.0085 6.6375 2.0417 6.6066 2.1603z" fill="#26231f"/>
  <path d="m530.51 595.15c-0.0308 0.13841-2.1448-0.33617-5.543-1.1518-3.3982-0.81074-8.085-1.9626-13.297-3.0007-5.2121-1.048-9.9651-1.7204-13.416-2.0565-3.4555-0.34605-5.6048-0.42514-5.6048-0.57839 0-0.12359 2.1581-0.30156 5.6445-0.13842 3.4908 0.15325 8.2969 0.71681 13.535 1.7747 5.2384 1.048 9.9208 2.3136 13.288 3.3023 3.3628 0.9986 5.4194 1.7154 5.3929 1.8489z" fill="#26231f"/>
  <path d="m496.58351,554.43363c0,.13842-1.08558.25706-2.83767.56356-1.7476.28673-4.16609.75637-6.88901,1.05792-2.70971.3065-5.23847.29167-7.02582-.17797-.89147-.22246-1.58434-.55368-2.02566-.85029s-.6355-.53884-.60461-.59322c.0706-.12359 1.01945.4993 2.74502.73659 1.71673.27189 4.14841.17797 6.82722-.12359s5.11937-.65255 6.90668-.76131c1.78731-.12853 2.90822.01 2.90385.14831z" fill="#26231f"/>
  <path d="m509.60652,560.20355c-.0176.14336-1.83151-.0494-4.75746-.35594-2.92595-.29661-6.96406-.68221-11.43458-.75142-2.23756-.0346-4.36463.0148-6.29766.11371l-1.4078.0791-1.33279.13842c-.86499.0742-1.67702.12853-2.42285.13842-2.99216.0791-4.79274-.59323-4.75302-.72176 .0265-.14336 1.81383.26695 4.72654.005 .72376-.0544 1.52256-.1483 2.37431-.262l1.33278-.18292 1.43429-.12853c1.95061-.1483 4.09989-.2274 6.35944-.1928 4.51472.0692 8.5793.57346 11.49638,1.05298 2.92158.48941 4.70003.93433 4.68242,1.06781z" fill="#26231f"/>
  <path d="m529.9033,531.36482c.0176.13792-.96208.43849-2.55523.82458-1.59763.38263-3.80861.85672-6.28441,1.23886-2.47139.39054-4.73536.57345-6.37707.58334s-2.65675-.13843-2.65675-.2719c0-.14337 1.00621-.25212 2.62144-.44491 1.61082-.18836 3.83507-.48546 6.28882-.86909s4.68235-.74202 6.30646-.94372 2.63464-.25558 2.65674-.11716z" fill="#26231f"/>
  <path d="m531.1126,506.25865c0,.14436-1.05036.25509-2.74053.43454l-6.6066.69605c-2.59056.25262-4.95602.36434-6.67276.29316-1.71674-.0623-2.76708-.2724-2.75825-.40637 .009-.14484 1.05916-.19032 2.74942-.31045 1.69026-.11172 4.02042-.33418 6.60216-.5863 2.58611-.25064 4.94717-.41279 6.65956-.40191 1.71227.003 2.767.14583 2.767.28128z" fill="#26231f"/>
  <path d="m528.99373,509.99052c-.004.2803-2.02566.49584-4.51911.71831s-4.5456.24618-4.56767-.0395c-.0265-.27091 1.98153-.75143 4.50146-.97092s4.58974.0124 4.58532.29216z" fill="#26231f"/>
  <path d="m502.03764,482.8493c-.004.14337-.84733.25707-2.21098.43553-1.35927.16956-3.24371.42564-5.35322.57246s-4.04691.0737-5.42824-.20219c-1.38575-.26745-2.18895-.6827-2.15364-.8058 .0353-.14534.87381.0158 2.22425.0939 1.35044.086 3.22164.0509 5.30467-.0979 2.08303-.14435 3.9851-.2892 5.37084-.27635 1.39024.004 2.24632.14386 2.24632.2803z" fill="#26231f"/>
  <path d="m532.63 452.31c0 0.14682-2.1183 0.2447-5.5386 0.49435-3.4158 0.23482-8.1335 0.67975-13.35 1.1459s-9.9695 0.74845-13.412 0.74054c-3.4379 7e-3 -5.5606-0.21455-5.5606-0.34505 4e-3 -0.14931 2.1272-0.18194 5.5474-0.37077 3.4202-0.17649 8.1335-0.5695 13.354-1.0357 5.2164-0.46469 9.9562-0.79888 13.394-0.85177 3.4424-0.0658 5.5651 0.09 5.5651 0.22246z" fill="#26231f"/>
  <path d="m531.41685,456.38515c.009.1399-.52076.31935-1.38575.51709-.86498.1928-2.06979.41724-3.42464.53044-1.35485.11717-2.6082.0544-3.49967-.12902s-1.40781-.44838-1.38133-.57889c.0265-.14237.57372-.12705 1.4387-.13496 .86499-.003 2.05214-.0539 3.3761-.16808s2.53759-.22048 3.42465-.23234c.88264-.0153 1.4387.0573 1.45194.19576z" fill="#26231f"/>
  <path d="m533.23058,429.24337c0,.14188-.74144.25806-1.93737.41279s-2.84652.36038-4.69565.5077c-1.84472.15029-3.53939.13991-4.76185-.0227s-1.95063-.42713-1.92856-.55962c.0177-.14385.76789-.12803 1.95945-.15621 1.19599-.0227 2.83769-.12359 4.66918-.27239s3.50849-.24718 4.72654-.21258 1.97275.16561 1.96826.30304z" fill="#26231f"/>
  <path d="m530.50747,433.65332c.0971.26547-.58254.74747-1.46959.80184-.87823.0638-1.55787-.18835-1.55787-.46271-.004-.28475.68846-.48842 1.49166-.54824 .80321-.0509 1.44312-.0475 1.5358.20911z" fill="#26231f"/>
  <path d="m555.04029,455.02849c0,.14386-1.08558.2536-2.82881.45827-1.74323.19378-4.15286.50523-6.8405.71829-2.68764.21703-5.1502.19824-6.91991-.0494-1.7741-.23729-2.82444-.66441-2.79355-.788 .0265-.1488 1.09889.0227 2.8421.0737 1.73881.0608 4.144-.0326 6.80958-.24817 2.66552-.21109 5.09725-.40982 6.86695-.42168 1.7697-.0222 2.86414.12161 2.86414.25706z" fill="#26231f"/>
  <path d="m548.68 508.63c0.0353 0.29118-3.0142 0.93236-6.7787 1.397s-6.8008 0.90665-6.8537 0.63921c-0.0574-0.27882 2.9568-1.1825 6.7478-1.6467 3.7821-0.46617 6.8493-0.65205 6.8846-0.38955z" fill="#26231f"/>
  <path d="m552.92 580.22c0.0663 0.29167-3.0142 1.2656-6.5977 3.0156-3.5879 1.7352-6.2712 3.673-6.4256 3.4308-0.14564-0.20763 2.3743-2.5706 6.0637-4.3602s6.9155-2.3383 6.9596-2.0862z" fill="#26231f"/>
  <path d="m548.07188,586.66536c.0353.13841-.52517.43503-1.45193.81074-.92237.3856-2.20661.83546-3.57029,1.44351-1.36368.60312-2.51994,1.30016-3.3099,1.89833-.79879.58827-1.25776,1.03815-1.35927.93927-.0883-.084.21625-.71681.96208-1.50283 .73701-.78603 1.94623-1.64621 3.37169-2.27404 1.42988-.63772 2.76707-.98871 3.73798-1.1914 .97532-.20268 1.58875-.25706 1.61964-.12358z" fill="#26231f"/>
  <path d="m489.31 582.6s-6.3594 5.0869-7.5731 12.211l11.814 2.3779s3.6364-11.538 6.3594-13.234c0 0-6.3594-3.7324-10.6-1.3545z" fill="#26231f"/>
  <path d="m537.34 575.46s1.1209 3.4308-0.51194 4.118c-1.6328 0.68221-64.596-6.4019-68.577-2.63 0 0-8.2659 5.7147 0 19.092l69.089 10.401s1.2224 4.6866 0.40594 4.6866-71.538-11.889-72.862-12.576c-1.3284-0.68217-6.1255-11.775-4.6956-17.144s5.0002-9.373 6.633-9.719c1.6329-0.3411 70.519 3.7719 70.519 3.7719z" fill="#e20415"/>
  <path d="m538.68 606.22s-0.57813 4.1971 1.2048 4.0142 29.771-14.499 30.098-15.409c0.32215-0.90467 0.48547-3.8065 0-3.4407-0.48547 0.36088-30.076 12.458-31.303 14.836z" fill="#c80015"/>
  <path d="m539.07 575.43 1.7256 1.2161s30.155-13.179 30.963-14.267 0.16332-4.7112 0.16332-4.7112-32.366 15.948-32.852 17.762z" fill="#c80015"/>
  <path d="m527.97 474.61s6.7743 12.383 0.0485 19.917c0 0 41.18-4.2559 41.97-5.3638s1.8624-14.071 0.28245-14.515-41.903-2.0313-42.301-0.0376z" fill="#d2650c"/>
  <path d="m482.17 475.23s-1.2622 3.6414 0 3.4204c15.129-2.6428 44.141-1.399 44.419-2.0209 0.2737-0.62189-0.83409-2.6433-0.83409-2.6433s-42.195-0.31095-43.585 1.2438z" fill="#ee7500"/>
  <path d="m533.72 444.06s0.78115 3.152-0.93561 2.9765c-1.7211-0.175-39.763-0.0232-40.438 1.6516-0.67522 1.6759-5.362 9.9049-0.51634 20.061 0 0 0.30893 1.051 1.2489 1.401s35.641-1.2261 35.795 0.17494-0.15446 2.4515-0.15446 2.4515-35.641 0.17402-36.89-0.52599-5.9402-11.206-1.5667-25.389c0 0 28.606-3.327 43.457-2.8015z" fill="#fec611"/>
  <path d="m535.28 444.59s0.45456 1.3234 1.474 1.6576 35.888 1.4939 35.888 0.79344v-2.101s-37.049-1.7505-37.362-0.35001z" fill="#cd9e00"/>
  <path d="m530.9 469.28s1.2225 1.58 2.4758 1.58 36.179 0.41921 36.334-0.6313c0.15883-1.05-0.0397-2.6997-0.0397-2.6997s-37.049 0.52501-38.77 1.751z" fill="#cd9e00"/>
  <path d="m489.62 582.93s-6.9684 8.8242-5.4547 10.179c1.5181 1.3595 9.0868 0.34114 9.0868 0.34114s5.7548-8.8193 4.8457-9.8377c-0.90476-1.0184-6.0549-1.7006-8.4778-0.68221z" fill="#e20415"/>
  <path d="m541.49 550.39s29.22-12.828 30.407-10.619l1.1827 2.2098s-29.22 14.158-30.407 13.273c-1.1827-0.88497-3.1598-4.8645-1.1827-4.8645z" fill="#078cc9"/>
  <path d="m532.84 337.88s0-17.359 14.493-25.926l0.19865 0.90221s-2.4141 1.8034-2.8157 5.4112c0 0 4.2234-6.088 9.8592-7.2151s8.9632-1.2715 9.9694 0.98277-1.4254 7.3471-1.4254 7.3471-8.2263-2.3096-9.0294 2.1989c0 0 4.7133-1.2853 7.9349 1.1949 0 0 0.60022 2.93-0.40594 3.6063s-7.6261-1.9176-7.2244 0.78748c0 0 8.6366 2.1431 9.0382 5.5249l-0.80762 2.0294s-4.0425-3.4225-3.0363-1.1676 4.6472 4.7745 4.0425 6.1265-7.0435-3.1554-5.8342-1.1267 2.8201 5.4103 0.80313 4.2832c-2.0124-1.1277-2.211 1.8034-2.211 2.0288s-4.6736-7.2037-7.2906-6.9778c-2.6127 0.22536 1.858 1.5676 2.2595 3.8213s-3.7247-2.2063-7.145-0.62831-3.3231 4.4611-5.3356 2.6572-7.6481-3.8322-6.0373-5.8606z" fill="#26231f"/>
  <path d="m534.74 331.55s4.0602-14.094 10.998-17.978c0 0-0.59577 1.2201-0.89146 1.442s-1.6858 1.7762-0.99297 4.4393l1.5843-0.22196s6.2446-10.321 15.954-7.4356c0 0 1.2842 4.8832 0.49433 5.4379-0.79439 0.55515-8.7205-2.1084-10.402 4.5501l0.39282 2.5528s3.0715-3.4402 9.6119-1.1099v2.3304s-6.4389-2.886-9.8062 0.77666l0.0971 1.665s6.3417-1.3319 11.095 4.2168l-0.39282 1.1098s-5.5518-3.1074-5.7504-1.4425c-0.19416 1.6645 6.4432 6.6585 5.5518 6.8804s-5.1546-2.8855-5.3533-1.6644 2.2816 4.7715 1.3902 4.6608-2.6745 1.2205-2.6745 1.2205-5.0531-8.8786-8.7204-6.7697-1.6859 1.1099-1.4873 1.5542 3.7644 2.4416 2.9746 2.2197-3.3673-0.99914-4.5589 0-5.949 0.2318-6.739-1.4381-3.1687-5.4433-2.3743-6.9966z" fill="#780f1a"/>
  <path d="m532.96 330.89s1.1872-6.9917 2.873-5.2159c1.6814 1.7757 10.799 13.761 8.619 15.87s-4.3603 1.7752-5.0532 0.66594-6.9376-9.9884-6.4389-11.32z" fill="#26231f"/>
  <path d="m535.14 326.34s-1.3902 3.7729-1.2887 4.772 6.7346 10.986 7.8246 10.432 1.9815-1.3313 1.4872-2.8856-7.5289-13.428-8.0232-12.318z" fill="#0083c2"/>
  <path d="m534.74 328.78c-0.0441 0.32974-0.99297-0.11123 0.29568 1.8865s5.3488 7.6585 5.3488 9.5445c0 0-1.9815-6.2145-2.9701-7.436s-2.5773-4.7715-2.6744-3.9949z" fill="#11b9e7"/>
  <path d="m535.44 327.22s8.0232 10.432 7.4318 11.986c-0.59578 1.5538-5.2517-7.3248-5.9446-8.3234s-1.8844-4.6613-1.4872-3.6622z" fill="#8fd5f2"/>
  <path d="m500.64 338.05s-3.2173-18.26-19.52-18.937c0 0-9.3383 3.7245-6.6418 3.8322 5.6357 0.22543 4.2278 1.5785 4.2278 1.5785s-7.0435-0.9012-7.2465 1.1271c-0.0706 0.71138-0.95767 2.1267 0.20301 2.931 2.1448 1.4885 7.0435 2.2542 7.0435 2.2542-1.2092 1.1271-8.6543-1.1271-8.6543-1.1271s-1.0062 3.8317-0.40161 4.0581 9.4575 1.5775 9.2545 2.9295-7.4451 0-7.4451 0-3.0186 3.3815 2.0124 4.0582-2.0742 0.17345 0.74142 3.5554 7.4186-0.37923 14.665 2.5524 10.556 4.4882 11.563 3.5865 4.828-6.0865 4.0249-8.1158c-0.80763-2.0294-1.6109-2.9306-3.8262-4.2836z" fill="#26231f"/>
  <path d="m475.5 322.45s3.3717-2.7748 5.9446-2.4416c2.5773 0.3327 13.871 0.3327 18.628 18.089 0 0 1.1872 0.22248 0.49434 1.1099s-1.6859 7.5463-1.3858 8.7674 0.29568 1.7758-0.69736 0.88784-9.4089-5.1047-12.48-5.2159-9.612 0.77666-10.203 0.33274c-0.59579-0.44404-1.5888-1.9977-1.5888-1.9977s3.0716-0.33228 2.7759-0.99868-5.2517-0.88785-5.4503-1.6644 0.3972-1.6651 0.3972-1.6651 6.9376 1.221 7.7275 0.44392 0.19859-2.7742-0.69287-2.9957-7.7275-2.109-7.7275-2.109-0.98856-2.6635-0.89147-2.3308 10.106 3.7734 11.293 2.5529-4.6559-3.329-6.1432-4.2174c-1.4828-0.88786-2.9701-1.4425-2.9701-1.4425l0.0971-1.7762s2.7759-1.9977 5.5474-0.3327c2.7759 1.665 2.6788-0.6659 2.1801-1.3313-0.49429-0.66541-4.8545-1.665-4.8545-1.665z" fill="#780f1a"/>
  <path d="m501.85 337.1c-0.29569-0.22988-2.083-5.5486-3.6674-3.5514s-5.4503 12.208-3.0716 16.314 4.7574 2.4421 5.0531 1.7757 2.6744-13.761 1.6858-14.538z" fill="#26231f"/>
  <path d="m534.67 451.26s-13.809 3.0003-26.122-3.5688c-12.317-6.5689-27.159-19.134-20.972-19.097 17.181 0.10431 48.501 19.812 47.093 22.666z" fill="#26231f"/>
  <path d="m530.39 448.72s-9.9208-0.047-20.235-5.3455-24.162-13.017-19.003-12.487c5.1546 0.53044 40.416 15.531 39.238 17.833z" fill="#008137"/>
  <path d="m534.21 364.3c4.9604 4.8076 5.4061 8.1173 9.6737 7.5537s4.9074 6.1459 7.3303 14.451c2.4714 8.4495 4.4485 24.563 2.9348 33.172-1.2578 7.1473-3.4732 7.2754-6.002 13.269-5.5827 13.242-11.386 19.825-13.129 20.097-19.096-20.266-47.897-16.934-48.651-20.875s22.128-22.909 22.626-30.227c0.31778-4.6312 4.2588-26.42 8.2131-26.604 7.0346-0.32825 4.3514-7.2438 5.2782-7.5542 2.5111-0.84486 10.115-4.8472 11.726-3.284z" fill="#26231f"/>
  <path d="m520.14 375.14s-3.2261 12.809 4.9825 12.152c3.5349-0.28222 6.8051-16.733 6.8051-16.733s4.9252 4.2529 9.3207 9.5079 16.713 31.201 9.0911 42.039c0 0-15.146 27.757-16.368 27.345s-11.483-9.9375-14.418-11.251-23.95-8.8909-23.95-8.8909 11.342-17.713 13.69-20.34c2.3434-2.627 1.4652-9.5247 2.0522-12.48s5.5694-18.72 5.5694-18.72 2.0521-3.6132 3.2261-2.628z" fill="#19a429"/>
  <path d="m520.7 439.14s9.7488 8.2651 13.275 10.306c1.0194-0.72474 2.1801-2.4762 2.1801-2.4762s-11.02-7.8291-12.904-8.582-2.5508 0.7524-2.5508 0.7524z" fill="#fce900"/>
  <path d="m532.54 373.2s2.083 7.704 1.2533 9.105 1.0415 17.976 1.249 20.311-8.7558 9.3384-13.549 14.941-1.4564 16.109 4.5853 20.778c6.0461 4.6687 8.1292 7.2368 8.1292 7.2368s14.316-22.672 15.495-27.678-0.0706-10.609-1.5313-12.943-5.212-16.809-6.8758-22.412c-1.6682-5.6031-8.5483-12.607-8.7557-9.3389z" fill="#018c37"/>
  <path d="m546.68 397.35s1.2534 10.414-1.7609 10.977-8.95-0.0475-8.95-0.0475 1.4122-11.774 3.1687-12.337 7.2906-0.84535 7.5422 1.4074z" fill="#26231f"/>
  <path d="m506.64 394.8s-3.5659 11.862-5.8254 11.581-5.5253-1.2952-4.7707-4.3909 4.5191-14.073 5.7769-13.229 4.8192 2.6621 4.8192 6.0395z" fill="#26231f"/>
  <path d="m513.76 438.16c1.0194 1.6309 1.2578 3.6587-1.0062 3.941s-35.676 14.354-41.961 19.421c0 0-1.2578-2.5336-0.5031-3.6592s29.149-22.799 34.926-23.362 6.7831 0.84435 8.544 3.6592z" fill="#26231f"/>
  <path d="m551.2 407.76s-23.363-4.5031-43.466 1.971c0 0-12.061-19.139-24.877-21.109 0 0-37.941 7.5992-37.941 11.258s32.164 23.924 32.164 23.924l4.0204 1.9704 33.165 0.56316s36.683-15.762 36.934-18.577z" fill="#26231f"/>
  <path d="m506.67 351.76c0.94884 0.59421 2.8244 0.76773 3.6586 0.10826l-3.6586-0.10826z" fill="#26231f"/>
  <path d="m510.33055,351.86881c-.19859-.24075-.85616-.0618-1.81383-.1048-.96207-.0732-1.69908-.26201-1.84912-.003-.1324.21158.69287.9546 1.84471,1.03518 1.17392.0766 2.01243-.73264 1.81824-.92692z" fill="#26231f"/>
  <path d="m507.57 350.01c0.737 0.9368 2.211 1.4485 3.257 1.2848l-3.257-1.2848z" fill="#26231f"/>
  <path d="m510.82883,351.2969c-.0706-.30649-.77673-.42662-1.61524-.71829-.82968-.3332-1.41664-.74895-1.64171-.56554-.19418.13149.3354,1.12613 1.39457,1.54585 1.05917.37174 1.93739-.008 1.86238-.26202z" fill="#26231f"/>
  <path d="m508.36 349.21c0.37954 1.053 1.5667 1.7945 2.5199 1.7095l-2.5199-1.7095z" fill="#26231f"/>
  <path d="m510.87755,350.92093c-.0618-.31787-.63109-.4899-1.26218-.87155-.60461-.4291-.98415-.91604-1.25776-.83793-.22949.0292-.0618,1.10142.83409,1.72678 .91353.56011 1.75646.23382 1.68585-.0173z" fill="#26231f"/>
  <path d="m509.55331,352.4956c.47222.74401 1.41223.89379 2.1051.33666s.8694-1.61308.39718-2.35609-1.41221-.89281-2.10509-.33567-.8694,1.61209-.39719,2.3551z" fill="#26231f"/>
  <path d="m536.31 339.35s2.2287-5.7622 5.1105-2.9078c0 0 4.8766 5.8235 0.74583 9.4996-0.11033 0.0959-0.54724-0.8612-0.54724-0.8612s-3.6056-4.641-5.3091-5.7306z" fill="#26231f"/>
  <path d="m537.43 340.17s1.6152-5.0785 3.813-2.7264c0 0 2.9304 2.4589-0.11033 6.7618-0.0838 0.1221 0 0 0 0s-1.5799-3.1935-3.7027-4.0354z" fill="#f09b75"/>
  <path d="m541.77 345.02c3.407 8.759-0.94447 19.421-9.8414 25.539-1.2445 0.85482-1.8888 2.9508-3.301 3.6103-1.6109 0.75387-3.9322 1e-3 -5.5562 0.4064-9.9739 2.4826-19.679-1.4782-23.019-10.061-3.8792-9.9825 2.3125-22.438 13.831-27.821s24.003-1.6561 27.887 8.3265z" fill="#26231f"/>
  <path d="m540.1 345.44c3.204 8.2399-0.78553 18.225-9.025 23.919-1.1519 0.79393-1.9285 2.3186-3.2394 2.9291-1.496 0.69955-3.4644 0.41975-4.9736 0.79001-9.2546 2.278-18.288-1.4909-21.431-9.5668-3.6497-9.3903 2.0477-21.047 12.723-26.037s22.296-1.4242 25.945 7.9656z" fill="#f4b891"/>
  <path d="m535.3 345.24c2.445 2.3922 1.0328 8.1232-3.1554 12.797-4.1837 4.6756-9.5545 6.5284-11.999 4.1363s0.0309-7.0694 4.2102-11.745 8.5042-7.5824 10.945-5.1883z" fill="#f4b891"/>
  <path d="m535.24 345.29c2.4229 2.3754 1.0239 8.061-3.1246 12.696s-9.484 6.4741-11.907 4.0992c-2.4273-2.3753 0.0221-7.0179 4.1705-11.655s8.4337-7.5167 10.861-5.1403z" fill="#f4b791"/>
  <path d="m535.17 345.33c2.4096 2.3576 1.0239 7.9977-3.0936 12.596s-9.4045 6.4192-11.81 4.0626 0.0132-6.9665 4.1263-11.566 8.3718-7.4504 10.777-5.0919z" fill="#f4b791"/>
  <path d="m535.11 345.37c2.3875 2.3408 1.0151 7.9354-3.0672 12.495s-9.3295 6.3643-11.717 4.025 9e-3 -6.9146 4.0866-11.476 8.31-7.3847 10.698-5.0439z" fill="#f4b690"/>
  <path d="m535.04 345.41c2.3743 2.323 1.0151 7.8731-3.0362 12.394s-9.2501 6.31-11.62 3.9879 0-6.8627 4.0469-11.386 8.2395-7.3194 10.609-4.9964z" fill="#f4b590"/>
  <path d="m534.98 345.46c2.3523 2.3047 1.0063 7.8098-3.0097 12.293-4.0116 4.4863-9.1751 6.2561-11.527 3.9514s-4e-3 -6.8113 4.0072-11.297 8.1776-7.2537 10.53-4.948z" fill="#f4b490"/>
  <path d="m534.92 345.5c2.3391 2.2874 1.0063 7.747-2.9744 12.192s-9.1001 6.2012-11.435 3.9143c-2.339-2.2868-0.0132-6.7598 3.963-11.207s8.1114-7.1884 10.446-4.8996z" fill="#f3b490"/>
  <path d="m534.85 345.54c2.317 2.2706 0.99741 7.6848-2.9479 12.092s-9.025 6.1463-11.342 3.8768-0.0177-6.7083 3.9278-11.118 8.0453-7.1222 10.362-4.8516z" fill="#f3b38f"/>
  <path d="m534.79 345.59c2.3038 2.2528 0.99742 7.622-2.9171 11.992s-8.9456 6.0909-11.245 3.8392-0.0265-6.656 3.8836-11.028 7.9791-7.0569 10.278-4.8036z" fill="#f3b28e"/>
  <path d="m534.73 345.63c2.2816 2.234 0.98856 7.5587-2.8906 11.891s-8.8705 6.0366-11.152 3.8022-0.0309-6.6046 3.8483-10.938c3.8748-4.333 7.9129-6.9907 10.194-4.7547z" fill="#f2b18f"/>
  <path d="m534.66 345.67c2.2684 2.2167 0.98418 7.4959-2.8598 11.789-3.8439 4.2955-8.7911 5.9822-11.055 3.766s-0.0397-6.5532 3.8042-10.849c3.8395-4.2945 7.8511-6.9249 10.111-4.7063z" fill="#f2b18d"/>
  <path d="m534.6 345.72c2.2463 2.1989 0.97981 7.4326-2.8332 11.689s-8.7161 5.9273-10.962 3.7284-0.0441-6.5013 3.7645-10.759 7.7849-6.8592 10.031-4.6583z" fill="#f3b08e"/>
  <path d="m534.53 345.76c2.2287 2.1821 0.97531 7.3708-2.798 11.588-3.7777 4.2188-8.6411 5.873-10.87 3.6913s-0.053-6.4494 3.7247-10.669c3.7733-4.2183 7.7187-6.7934 9.943-4.6108z" fill="#f3af8e"/>
  <path d="m534.47 345.8c2.211 2.1633 0.97095 7.3081-2.7715 11.487s-8.566 5.818-10.773 3.6538-0.0618-6.398 3.6806-10.579 7.6525-6.7277 9.8635-4.5624z" fill="#f3ae8e"/>
  <path d="m534.4 345.84c2.1934 2.1465 0.96646 7.2453-2.7406 11.387s-8.4866 5.7633-10.68 3.6172-0.0618-6.3465 3.6409-10.49c3.7071-4.1427 7.5907-6.6614 9.7797-4.5144z" fill="#f3ae8d"/>
  <path d="m534.34 345.89c2.1758 2.1292 0.96208 7.183-2.7142 11.286-3.6717 4.1052-8.4115 5.7094-10.583 3.5807-2.1757-2.1282-0.0706-6.2952 3.6012-10.4s7.52-6.5962 9.6958-4.4665z" fill="#f2ac8d"/>
  <path d="m534.28 345.93c2.1537 2.1119 0.95334 7.1207-2.6876 11.185-3.6365 4.0676-8.3322 5.655-10.49 3.5436s-0.075-6.2432 3.5614-10.31 7.4583-6.5309 9.6163-4.419z" fill="#f2ac8c"/>
  <path d="m534.21 345.97c2.1404 2.0941 0.94884 7.0574-2.6524 11.084-3.6056 4.029-8.2615 5.6001-10.397 3.5065s-0.0838-6.1918 3.5173-10.221c3.6056-4.0275 7.3921-6.4642 9.5325-4.3701z" fill="#f1ab8c"/>
  <path d="m534.15 346.02c2.1183 2.0763 0.94447 6.9946-2.6259 10.984s-8.182 5.5452-10.305 3.4688-0.0883-6.1393 3.4776-10.131 7.3304-6.3989 9.4531-4.3216z" fill="#f1ab8c"/>
  <path d="m534.09 346.06c2.1051 2.0585 0.93999 6.9318-2.5949 10.883-3.535 3.9528-8.1071 5.4903-10.208 3.4318-2.1051-2.058-0.0971-6.0885 3.4379-10.041s7.2597-6.3337 9.3648-4.2737z" fill="#f2a98a"/>
  <path d="m534.03 346.1c2.083 2.0412 0.93561 6.8686-2.5685 10.782s-8.0276 5.4359-10.115 3.3953c-2.083-2.0402-0.10152-6.0366 3.3982-9.9509s7.1979-6.2684 9.2854-4.2262z" fill="#f2a88b"/>
  <path d="m533.96 346.14c2.0698 2.0244 0.93123 6.8063-2.5376 10.682-3.4644 3.8768-7.9526 5.381-10.018 3.3577s-0.11033-5.9851 3.354-9.8619c3.4688-3.8762 7.1362-6.2022 9.2015-4.1778z" fill="#f2a88a"/>
  <path d="m533.9 346.19c2.0478 2.0051 0.92674 6.743-2.5067 10.581s-7.8776 5.3262-9.9298 3.3206-0.11474-5.9332 3.3187-9.7724 7.0655-6.1359 9.1177-4.1288z" fill="#f2a78a"/>
  <path d="m533.83 346.23c2.03 1.9878 0.92226 6.6802-2.4758 10.48s-7.8026 5.2718-9.8327 3.283-0.12357-5.8813 3.2746-9.6819 7.0037-6.0707 9.0339-4.0809z" fill="#f1a689"/>
  <path d="m533.77 346.27c2.0124 1.9705 0.91788 6.6174-2.4493 10.379-3.3629 3.7626-7.7231 5.2169-9.7399 3.2465-2.0124-1.9695-0.12799-5.83 3.2393-9.593 3.3629-3.762 6.9332-6.0049 8.95-4.0324z" fill="#f0a589"/>
  <path d="m533.7 346.32c1.9947 1.9532 0.91351 6.5551-2.4185 10.279-3.3276 3.7251-7.6481 5.1621-9.6428 3.2099s-0.13681-5.779 3.1952-9.504 6.8714-5.9387 8.8662-3.9845z" fill="#f0a48a"/>
  <path d="m533.64 346.36c1.9815 1.9354 0.91351 6.4934-2.3876 10.178-3.2966 3.6868-7.5686 5.1076-9.5457 3.1727s-0.14563-5.7271 3.151-9.414 6.8051-5.8729 8.7823-3.9366z" fill="#f0a488"/>
  <path d="m533.57 346.4c1.9594 1.9181 0.90464 6.4301-2.3567 10.077-3.2658 3.6483-7.498 5.0532-9.4575 3.1352s-0.15005-5.6757 3.1157-9.324c3.2614-3.6474 6.739-5.8072 8.6985-3.8886z" fill="#f0a388"/>
  <path d="m533.51 346.44c1.9418 1.9003 0.89578 6.3673-2.3302 9.9766s-7.4186 4.9985-9.3604 3.0981-0.15445-5.6233 3.0716-9.234 6.6772-5.7414 8.619-3.8406z" fill="#f0a288"/>
  <path d="m533.45 346.49c1.9242 1.8835 0.89579 6.3045-2.2993 9.8758s-7.3436 4.944-9.2677 3.061-0.15888-5.5718 3.0319-9.1445c3.1952-3.5712 6.611-5.6757 8.5352-3.7922z" fill="#f0a187"/>
  <path d="m533.38 346.53c1.9064 1.8657 0.88704 6.2422-2.2728 9.7754s-7.2641 4.8891-9.1706 3.024c-1.9065-1.8648-0.1677-5.52 2.9922-9.0551 3.1554-3.5332 6.5448-5.6099 8.4513-3.7442z" fill="#f0a187"/>
  <path d="m533.32 346.57c1.8888 1.8474 0.88704 6.1794-2.242 9.674-3.1246 3.4966-7.1891 4.8348-9.078 2.9868s-0.17211-5.468 2.9524-8.9646 6.4786-5.5442 8.3675-3.6963z" fill="#f09f87"/>
  <path d="m533.26 346.62c1.8711 1.8301 0.87817 6.1166-2.2111 9.5732s-7.1141 4.78-8.9853 2.9503-0.18094-5.4166 2.9083-8.8756 6.4168-5.4784 8.288-3.6478z" fill="#ef9e86"/>
  <path d="m533.19 346.66c1.8535 1.8128 0.87817 6.0534-2.1802 9.4723s-7.0391 4.7261-8.8926 2.9138-0.18536-5.3663 2.873-8.7867c3.0539-3.419 6.3462-5.4127 8.1998-3.5994z" fill="#ef9c86"/>
  <path d="m533.13 346.7c1.8315 1.795 0.86943 5.9916-2.1536 9.372s-6.9596 4.6711-8.7955 2.8762-0.19417-5.3139 2.8289-8.6967 6.2844-5.3469 8.1202-3.5514z" fill="#ef9c86"/>
  <path d="m533.06 346.75c1.8183 1.7767 0.86942 5.9283-2.1227 9.2711s-6.8846 4.6158-8.7028 2.8391c-1.8138-1.7772-0.1986-5.2629 2.7891-8.6072s6.2226-5.2812 8.0364-3.503z" fill="#ef9b85"/>
  <path d="m533 346.79c1.7962 1.7589 0.86068 5.865-2.0962 9.1703-2.9524 3.3057-6.8052 4.561-8.6058 2.801s-0.20741-5.21 2.7494-8.5163c2.9524-3.3053 6.152-5.2159 7.9525-3.455z" fill="#ef9b84"/>
  <path d="m532.93 346.83c1.7829 1.7416 0.86057 5.8022-2.0654 9.0694-2.9171 3.2682-6.7301 4.506-8.5086 2.7644s-0.21625-5.1591 2.7053-8.4273 6.0902-5.1497 7.8687-3.4066z" fill="#ef9b84"/>
  <path d="m532.87 346.87c1.761 1.7248 0.85182 5.7404-2.0344 8.9691s-6.6551 4.4517-8.4204 2.7273-0.22066-5.1067 2.6656-8.3378 6.024-5.0839 7.7892-3.3586z" fill="#ef9983"/>
  <path d="m532.81 346.92c1.7476 1.707 0.85182 5.6777-2.0036 8.8687-2.8509 3.1916-6.5801 4.3973-8.3233 2.6898-1.7476-1.7055-0.22949-5.0552 2.6259-8.2473 2.8509-3.1901 5.9578-5.0187 7.701-3.3112z" fill="#ef9883"/>
  <path d="m532.74 346.96c1.7256 1.6892 0.84295 5.6149-1.9771 8.7679s-6.5006 4.343-8.2306 2.6537-0.22949-5.0044 2.5861-8.1588 5.8916-4.9524 7.6216-3.2628z" fill="#ee9783"/>
  <path d="m532.68 347c1.7124 1.6719 0.83846 5.5526-1.9462 8.6665-2.7847 3.1159-6.4256 4.2885-8.1335 2.6166s-0.23832-4.9524 2.542-8.0689c2.7847-3.1144 5.8298-4.8867 7.5377-3.2143z" fill="#ee9783"/>
  <path d="m532.62 347.04c1.6903 1.6541 0.8341 5.4893-1.9197 8.5657s-6.3462 4.2336-8.0409 2.5796-0.24272-4.9006 2.5067-7.9794 5.7592-4.8214 7.4539-3.1658z" fill="#ee9682"/>
  <path d="m532.55 347.09c1.677 1.6363 0.82972 5.4265-1.8844 8.4648-2.7185 3.0398-6.2756 4.1787-7.9482 2.5424-1.677-1.6353-0.25156-4.8491 2.4626-7.8894s5.6974-4.7552 7.37-3.1179z" fill="#ed9482"/>
  <path d="m532.49 347.13c1.6549 1.619 0.82522 5.3642-1.858 8.3645s-6.1962 4.1244-7.8555 2.5054c-1.655-1.6181-0.25597-4.7973 2.4228-7.7995s5.6312-4.6899 7.2906-3.0704z" fill="#ed9482"/>
  <path d="m532.42 347.17c1.6418 1.6012 0.82089 5.3015-1.8271 8.2636s-6.1211 4.07-7.7584 2.4684-0.26479-4.7458 2.3831-7.71c2.6435-2.9622 5.565-4.6237 7.2023-3.022z" fill="#ee9482"/>
  <path d="m532.36 347.22c1.6196 1.5839 0.81647 5.2382-1.8006 8.1628-2.6126 2.9251-6.0417 4.0156-7.6657 2.4308s-0.2692-4.694 2.3434-7.62c2.6126-2.9241 5.5033-4.558 7.1229-2.9735z" fill="#ee9282"/>
  <path d="m532.3 347.26c1.6064 1.5656 0.81203 5.1749-1.7697 8.0614s-5.9667 3.9603-7.5686 2.3937c-1.602-1.5647-0.27804-4.6425 2.2993-7.53s5.4371-4.4922 7.0391-2.9251z" fill="#ed9182"/>
  <path d="m532.23 347.3c1.5844 1.5478 0.80761 5.1121-1.7388 7.9616s-5.8916 3.9054-7.4804 2.3571c-1.5843-1.5479-0.28244-4.5911 2.264-7.4416 2.542-2.848 5.3709-4.4264 6.9552-2.8771z" fill="#ed9181"/>
  <path d="m532.17 347.35c1.5711 1.5305 0.80321 5.0498-1.7079 7.8607s-5.8166 3.8506-7.3833 2.3196-0.29128-4.5392 2.2198-7.3516 5.3047-4.3607 6.8714-2.8287z" fill="#ed9081"/>
  <path d="m532.1 347.39c1.5491 1.5137 0.79879 4.9875-1.6814 7.7604s-5.7372 3.7956-7.2862 2.2825-0.3001-4.4873 2.1757-7.2621 5.2429-4.2945 6.7919-2.7807z" fill="#ed8e81"/>
  <path d="m532.04 347.43c1.5314 1.4959 0.79438 4.9243-1.6505 7.6595-2.4405 2.7348-5.6621 3.7417-7.1935 2.2454-1.5314-1.4944-0.30452-4.4358 2.1404-7.1721 2.4405-2.7338 5.1723-4.2292 6.7036-2.7328z" fill="#ed8d80"/>
  <path d="m531.98 347.47c1.5138 1.4781 0.78555 4.8615-1.6241 7.5582s-5.5827 3.6874-7.0964 2.2088-0.31333-4.3839 2.0963-7.0816 5.1105-4.1644 6.6242-2.6853z" fill="#ed8d80"/>
  <path d="m531.91 347.52c1.496 1.4608 0.78554 4.7997-1.5888 7.4578s-5.5121 3.6325-7.0082 2.1717-0.31333-4.333 2.0566-6.9922 5.0487-4.0982 6.5404-2.6374z" fill="#ed8c7f"/>
  <path d="m531.85 347.56c1.4784 1.443 0.77671 4.7364-1.5623 7.357s-5.4326 3.5776-6.9111 2.1341-0.32216-4.2806 2.0168-6.9022 4.9781-4.0329 6.4565-2.5889z" fill="#ed8a7f"/>
  <path d="m531.78 347.6c1.4608 1.4257 0.77672 4.6736-1.5314 7.2566-2.3037 2.5825-5.3576 3.5228-6.8184 2.0966-1.4608-1.4237-0.32659-4.2292 1.9771-6.8122s4.9163-3.9672 6.3727-2.541z" fill="#ed8a7e"/>
  <path d="m531.72 347.65c1.4431 1.4079 0.7679 4.6113-1.5049 7.1558s-5.2782 3.4679-6.7213 2.0605-0.33541-4.1783 1.933-6.7237c2.2728-2.544 4.8501-3.9014 6.2932-2.4925z" fill="#eb897d"/>
  <path d="m531.66 347.69c1.4255 1.3901 0.7679 4.5486-1.474 7.0549s-5.2032 3.4145-6.6286 2.0234c-1.4211-1.3891-0.33983-4.1264 1.8977-6.6338 2.2331-2.5054 4.7839-3.8357 6.205-2.4446z" fill="#eb877c"/>
  <path d="m531.59 347.73c1.4078 1.3728 0.75907 4.4858-1.4431 6.9541-2.2066 2.4688-5.1281 3.3591-6.536 1.9863s-0.34864-4.074 1.8536-6.5443 4.7177-3.7695 6.1255-2.3962z" fill="#eb877c"/>
  <path d="m531.53 347.77c1.3902 1.3555 0.75906 4.423-1.4122 6.8532s-5.0531 3.3048-6.4433 1.9492c-1.3857-1.354-0.35305-4.023 1.8182-6.4543s4.6515-3.7037 6.0373-2.3482z" fill="#eb867b"/>
  <path d="m531.47 347.82c1.3725 1.3367 0.75025 4.3597-1.3857 6.7519s-4.9737 3.2499-6.3462 1.9122-0.36189-3.9706 1.7741-6.3643c2.1316-2.3917 4.5853-3.638 5.9578-2.2997z" fill="#ea847b"/>
  <path d="m531.4 347.86c1.3549 1.319 0.74583 4.2969-1.3548 6.6511-2.1007 2.3551-4.8986 3.195-6.2535 1.8751s-0.3663-3.9197 1.7344-6.2748c2.1007-2.3541 4.5235-3.5722 5.874-2.2513z" fill="#ea837b"/>
  <path d="m531.34 347.9c1.3372 1.3021 0.74142 4.2351-1.3284 6.5512s-4.8236 3.1406-6.1564 1.8375-0.37513-3.8673 1.6947-6.1849 4.4573-3.5065 5.7901-2.2038z" fill="#ea837b"/>
  <path d="m531.27 347.95c1.3195 1.2848 0.737 4.1719-1.2931 6.4503s-4.7486 3.0862-6.0682 1.8019-0.37953-3.8174 1.655-6.0964 4.3911-3.4407 5.7063-2.1559z" fill="#ea8179"/>
  <path d="m531.21 347.99c1.3019 1.267 0.73259 4.1096-1.2666 6.35s-4.6692 3.0309-5.9711 1.7634-0.38836-3.7645 1.6108-6.0059 4.3294-3.375 5.6268-2.1074z" fill="#ea8078"/>
  <path d="m531.14 348.03c1.2842 1.2492 0.72818 4.0468-1.2357 6.2491s-4.5942 2.976-5.874 1.7263-0.39719-3.7131 1.5711-5.9164c1.9595-2.2009 4.2587-3.3087 5.5386-2.059z" fill="#ea8078"/>
  <path d="m531.08 348.07c1.2622 1.2319 0.72377 3.984-1.2092 6.1488s-4.5147 2.9216-5.7813 1.6892c-1.2622-1.2309-0.4016-3.6617 1.5314-5.8265s4.197-3.244 5.4591-2.0115z" fill="#ea7e77"/>
  <path d="m531.02 348.12c1.249 1.2146 0.71936 3.9212-1.1783 6.0474-1.8933 2.1262-4.4397 2.8673-5.6842 1.6526-1.2489-1.2132-0.40601-3.6103 1.4873-5.737 1.8977-2.1247 4.1308-3.1782 5.3753-1.9631z" fill="#ea7d78"/>
  <path d="m530.95 348.16c1.2269 1.1964 0.71494 3.8589-1.1518 5.9466-1.858 2.0886-4.3602 2.8129-5.5915 1.6156s-0.41043-3.5579 1.4475-5.647 4.069-3.1125 5.2958-1.9151z" fill="#e97c77"/>
  <path d="m530.89 348.2c1.2136 1.179 0.71052 3.7956-1.1166 5.8458s-4.2896 2.758-5.4988 1.578-0.41925-3.506 1.4078-5.557 3.9984-3.0467 5.2076-1.8667z" fill="#e97c77"/>
  <path d="m530.83 348.25c1.1916 1.1612 0.7017 3.7329-1.0901 5.7449s-4.2102 2.7036-5.4062 1.5409c-1.1916-1.1598-0.42367-3.4536 1.3681-5.4671s3.9366-2.9815 5.1281-1.8187z" fill="#e97a76"/>
  <path d="m530.76 348.29c1.1783 1.1439 0.70169 3.6711-1.0592 5.6445s-4.1352 2.6488-5.3091 1.5048-0.43249-3.4036 1.324-5.3786 3.8748-2.9152 5.0443-1.7708z" fill="#e97a76"/>
  <path d="m530.7 348.33c1.1563 1.1266 0.69288 3.6078-1.0327 5.5437s-4.0602 2.5944-5.2164 1.4672c-1.1563-1.1247-0.43691-3.3512 1.2887-5.2886 1.7256-1.9349 3.8042-2.8495 4.9604-1.7223z" fill="#e87975"/>
  <path d="m530.63 348.38c1.143 1.1083 0.69288 3.544-1.0018 5.4418s-3.9807 2.54-5.1193 1.4307-0.44574-3.3003 1.2445-5.1991 3.7424-2.7832 4.8766-1.6734z" fill="#e87975"/>
  <path d="m530.57 348.42c1.121 1.091 0.68405 3.4817-0.97089 5.342-1.6594 1.8603-3.9057 2.4846-5.0266 1.3931s-0.45456-3.2484 1.2048-5.1092c1.655-1.8583 3.6718-2.718 4.7927-1.6259z" fill="#e87875"/>
  <path d="m530.5 348.46c1.1077 1.0737 0.68404 3.4199-0.94 5.2421s-3.8307 2.4298-4.934 1.3555-0.45897-3.197 1.1651-5.0197 3.61-2.6517 4.7089-1.578z" fill="#e87775"/>
  <path d="m530.44 348.5c1.0856 1.0564 0.67522 3.3567-0.91353 5.1413s-3.7556 2.3749-4.8369 1.3184c-1.0856-1.0544-0.4678-3.1451 1.121-4.9297s3.5438-2.586 4.6294-1.53z" fill="#e87673"/>
  <path d="m530.38 348.55c1.0724 1.0382 0.67521 3.2939-0.88264 5.0404-1.5534 1.7461-3.6762 2.3205-4.7442 1.2809s-0.47221-3.0932 1.0857-4.8397c1.5534-1.7446 3.4776-2.5202 4.5412-1.4816z" fill="#e87673"/>
  <path d="m530.31 348.59c1.0503 1.0208 0.66638 3.2311-0.85616 4.9391s-3.5968 2.2661-4.6471 1.2448-0.48104-3.0413 1.0415-4.7502 3.4114-2.455 4.4618-1.4336z" fill="#e87573"/>
  <path d="m530.25 348.63c1.0371 1.0031 0.66638 3.1683-0.82086 4.8382s-3.5262 2.2118-4.5588 1.2082-0.48546-2.9908 1.0018-4.6613 3.3496-2.3892 4.3779-1.3852z" fill="#e87473"/>
  <path d="m530.19 348.68c1.015 0.98574 0.65756 3.106-0.79437 4.7379s-3.4511 2.1564-4.4618 1.1706c-1.015-0.98427-0.48987-2.9384 0.96207-4.5713s3.2834-2.3235 4.294-1.3372z" fill="#e87472"/>
  <path d="m530.12 348.72c0.99738 0.96794 0.64873 3.0432-0.7679 4.6375s-3.3717 2.102-4.3691 1.1331c-0.99297-0.96647-0.49428-2.887 0.92236-4.4818s3.2172-2.2572 4.2146-1.2888z" fill="#e87472"/>
  <path d="m530.06 348.76c0.97972 0.95064 0.64873 2.98-0.73701 4.5362-1.3813 1.5557-3.2967 2.0476-4.272 1.0965s-0.5031-2.8351 0.87823-4.3918c1.3857-1.5542 3.1554-2.192 4.1308-1.2408z" fill="#e87272"/>
  <path d="m530 348.8c0.95766 0.93235 0.6399 2.9177-0.71053 4.4354s-3.2172 1.9932-4.1793 1.0594-0.50751-2.7837 0.84292-4.3024 3.0848-2.1257 4.0469-1.1924z" fill="#e87171"/>
  <path d="m529.93 348.85c0.94442 0.91555 0.63991 2.8554-0.67522 4.335s-3.1466 1.9384-4.0866 1.0223c-0.94001-0.91407-0.51634-2.7318 0.79879-4.2124s3.023-2.0605 3.9631-1.1449z" fill="#e86f70"/>
  <path d="m529.87 348.89c0.92235 0.89725 0.63108 2.7921-0.64874 4.2342s-3.0672 1.8835-3.994 0.98475c-0.92236-0.89527-0.52076-2.6799 0.75908-4.1224s2.9568-1.9947 3.8836-1.0965z" fill="#e86f70"/>
  <path d="m529.8 348.93c0.90913 0.87995 0.63109 2.7298-0.61785 4.1333-1.2445 1.4035-2.9922 1.8286-3.8968 0.94816s-0.52959-2.629 0.71935-4.0329c1.2445-1.4015 2.8906-1.929 3.7954-1.0485z" fill="#e86e70"/>
  <path d="m529.74 348.98c0.88706 0.86265 0.62226 2.667-0.59137 4.0324s-2.9127 1.7742-3.7998 0.91111-0.53841-2.5771 0.67522-3.9435c1.2136-1.3634 2.8289-1.8632 3.7159-1.0001z" fill="#e76d6f"/>
  <path d="m529.67 349.02c0.87381 0.84435 0.62226 2.6038-0.56048 3.9311-1.1739 1.3278-2.8377 1.7204-3.7071 0.87451-0.8694-0.84337-0.54282-2.5252 0.6355-3.854s2.7627-1.797 3.6321-0.95163z" fill="#e76c6f"/>
  <path d="m529.61 349.06c0.85175 0.82755 0.61343 2.5415-0.52959 3.8312-1.1474 1.2893-2.7627 1.665-3.6144 0.83694-0.85616-0.82557-0.55165-2.4738 0.59579-3.7645 1.143-1.2868 2.6965-1.7312 3.5482-0.90368z" fill="#e76c6f"/>
  <path d="m529.55 349.1c0.8385 0.80975 0.61343 2.4792-0.4987 3.7304s-2.6876 1.6106-3.5217 0.79986-0.55607-2.4218 0.55606-3.6745 2.6303-1.666 3.4644-0.85573z" fill="#e76a6f"/>
  <path d="m529.48 349.15c0.81644 0.79196 0.60461 2.4164-0.47221 3.6296s-2.6082 1.5552-3.4246 0.76279-0.56489-2.3704 0.51193-3.5851 2.5685-1.5997 3.3849-0.80728z" fill="#e7696d"/>
  <path d="m529.42 349.19c0.80321 0.77416 0.60019 2.3531-0.44132 3.5292s-2.5332 1.5004-3.332 0.72472c-0.79879-0.77219-0.5693-2.318 0.47662-3.4946 1.0415-1.1731 2.4979-1.5345 3.2967-0.75933z" fill="#e6676d"/>
  <path d="m529.36 349.23c0.78113 0.75736 0.59578 2.2908-0.41485 3.4284s-2.4537 1.4465-3.2349 0.68814c-0.78114-0.75488-0.57813-2.2671 0.43249-3.4051s2.4361-1.4687 3.2172-0.71138z" fill="#e7666d"/>
  <path d="m529.29 349.28c0.76349 0.73906 0.59137 2.2281-0.37953 3.3275-0.97533 1.0994-2.3831 1.3921-3.1466 0.65156s-0.57813-2.2157 0.39278-3.3156c0.97531-1.0975 2.3699-1.403 3.1334-0.66342z" fill="#e7666d"/>
  <path d="m529.23 349.32c0.74584 0.72176 0.58696 2.1653-0.35306 3.2266s-2.3037 1.3372-3.0495 0.61449-0.58696-2.1643 0.35306-3.2262 2.3037-1.3372 3.0495-0.61498z" fill="#e6656c"/>
  <path d="m500.46 359.15c0.17212 2.8332 3.4158 5.4854 7.2465 5.9288s6.7964-1.489 6.6287-4.3212-3.6498-5.1334-7.476-5.5763c-3.8351-0.44344-6.5668 1.138-6.3991 3.9687z" fill="#f4b891"/>
  <path d="m500.51 359.14c0.1677 2.8119 3.3849 5.4443 7.1847 5.8843s6.7434-1.4781 6.5713-4.29-3.6144-5.0958-7.4142-5.5358-6.5139 1.1311-6.3418 3.9415z" fill="#f4b791"/>
  <path d="m500.55 359.13c0.1677 2.7911 3.3584 5.4043 7.1273 5.8408 3.7645 0.4375 6.686-1.4682 6.5184-4.2589s-3.588-5.0597-7.3524-5.4962c-3.7689-0.43602-6.4609 1.1252-6.2932 3.9143z" fill="#f4b791"/>
  <path d="m500.59 359.12c0.1677 2.7704 3.332 5.3633 7.07 5.7963 3.7336 0.43355 6.6287-1.4578 6.4653-4.2272-0.16769-2.7684-3.557-5.0231-7.295-5.4557s-6.408 1.1177-6.2403 3.8866z" fill="#f4b690"/>
  <path d="m500.64 359.11c0.1677 2.7501 3.3055 5.3242 7.0126 5.7533 3.7027 0.43008 6.5712-1.448 6.408-4.1971s-3.5262-4.9861-7.2289-5.4147c-3.7071-0.4291-6.355 1.1113-6.1917 3.8584z" fill="#f4b590"/>
  <path d="m500.69 359.1c0.16329 2.7284 3.2746 5.2827 6.9508 5.7083 3.6718 0.42712 6.5183-1.4371 6.355-4.165s-3.4996-4.9495-7.1714-5.3751c-3.6762-0.42515-6.302 1.1044-6.1344 3.8317z" fill="#f4b490"/>
  <path d="m500.73 359.09c0.16329 2.7081 3.2481 5.2431 6.889 5.6648 3.6453 0.42416 6.4654-1.4267 6.3064-4.1338s-3.4688-4.9129-7.1096-5.3351c-3.6453-0.42218-6.2491 1.0985-6.0858 3.804z" fill="#f3b490"/>
  <path d="m500.78 359.08c0.16329 2.6868 3.2216 5.2021 6.8316 5.6208s6.408-1.4163 6.2491-4.1031c-0.16321-2.6844-3.4379-4.8753-7.0479-5.2946s-6.1961 1.0915-6.0328 3.7769z" fill="#f3b38f"/>
  <path d="m500.82 359.07c0.16329 2.667 3.1952 5.162 6.7743 5.5763 3.5791 0.41624 6.355-1.4055 6.1961-4.0715-0.1632-2.6641-3.407-4.8388-6.9861-5.2545-3.5835-0.41427-6.1432 1.0856-5.9843 3.7497z" fill="#f3b28e"/>
  <path d="m500.86 359.06c0.16329 2.6458 3.1687 5.121 6.7169 5.5323s6.2977-1.3956 6.1387-4.0409c-0.15883-2.6428-3.3761-4.8017-6.9243-5.213s-6.0902 1.0777-5.9314 3.7215z" fill="#f2b18f"/>
  <path d="m500.91 359.05c0.15888 2.6255 3.1378 5.081 6.6551 5.4888s6.2402-1.3852 6.0858-4.0092c-0.15883-2.623-3.3452-4.7651-6.8625-5.1734s-6.0373 1.0718-5.8784 3.6938z" fill="#f2b18d"/>
  <path d="m500.96 359.04c0.15447 2.6033 3.1113 5.0394 6.5977 5.4443s6.1873-1.3753 6.0329-3.9786c-0.15895-2.6018-3.3187-4.729-6.8052-5.1334s-5.9843 1.0643-5.8254 3.6676z" fill="#f3b08e"/>
  <path d="m501 359.03c0.15446 2.5835 3.0848 4.9999 6.5404 5.3998s6.13-1.3639 5.9755-3.9469-3.2835-4.6914-6.739-5.0928-5.9313 1.0579-5.7769 3.6399z" fill="#f3af8e"/>
  <path d="m501.05 359.02c0.15446 2.5617 3.0584 4.9584 6.483 5.3553s6.0726-1.3536 5.9225-3.9153-3.257-4.6553-6.6816-5.0533-5.8784 1.0515-5.7239 3.6132z" fill="#f3ae8e"/>
  <path d="m501.09 359.01c0.15005 2.5415 3.0275 4.9188 6.4168 5.3118 3.3938 0.395 6.024-1.3432 5.8696-3.8846s-3.2261-4.6183-6.6154-5.0123-5.8254 1.0446-5.671 3.5851z" fill="#f3ae8d"/>
  <path d="m501.14 359c0.15005 2.5207 3.001 4.8778 6.3594 5.2678s5.9667-1.3328 5.8166-3.8535-3.1952-4.5812-6.558-4.9717-5.7725 1.0376-5.618 3.5574z" fill="#f2ac8d"/>
  <path d="m501.18 358.99c0.15005 2.4994 2.9745 4.8378 6.302 5.2238s5.9092-1.3229 5.7636-3.8224-3.1687-4.5446-6.4962-4.9312-5.7195 1.0307-5.5695 3.5297z" fill="#f2ac8c"/>
  <path d="m501.23 358.98c0.15005 2.4797 2.9436 4.7967 6.2447 5.1794 3.3011 0.38511 5.8563-1.312 5.7062-3.7912s-3.1334-4.508-6.4344-4.8911-5.6666 1.0248-5.5165 3.503z" fill="#f1ab8c"/>
  <path d="m501.27 358.97c0.14563 2.4589 2.9127 4.7567 6.1829 5.1364s5.799-1.3021 5.6533-3.7601-3.1069-4.471-6.3726-4.8516-5.6136 1.0184-5.4635 3.4753z" fill="#f1ab8c"/>
  <path d="m501.32 358.96c0.14563 2.4377 2.8862 4.7157 6.1255 5.0919 3.2349 0.37669 5.7416-1.2922 5.6004-3.7294-0.15008-2.4357-3.076-4.4344-6.3153-4.8106s-5.5606 1.0114-5.4106 3.4481z" fill="#f2a98a"/>
  <path d="m501.36 358.94c0.14563 2.4169 2.8598 4.6756 6.0682 5.0474 3.204 0.37423 5.6842-1.2804 5.5429-3.6973-0.14559-2.4149-3.0451-4.3978-6.249-4.7705-3.2084-0.37126-5.5077 1.005-5.362 3.4204z" fill="#f2a88b"/>
  <path d="m501.41 358.93c0.14564 2.3961 2.8333 4.6356 6.0108 5.0039 3.1731 0.37026 5.6312-1.2705 5.49-3.6666-0.14558-2.3942-3.0186-4.3602-6.1917-4.73-3.1775-0.36829-5.4503 0.99811-5.3091 3.3928z" fill="#f2a88a"/>
  <path d="m501.45 358.92c0.14564 2.3754 2.8068 4.5945 5.9534 4.9599 3.1422 0.36681 5.5738-1.2601 5.4326-3.6355-0.14116-2.3739-2.9833-4.3241-6.1255-4.69-3.1466-0.36483-5.4018 0.99168-5.2605 3.3656z" fill="#f2a78a"/>
  <path d="m501.5 358.91c0.14122 2.3546 2.7759 4.5545 5.8872 4.9159 3.1157 0.36286 5.5254-1.2502 5.3841-3.6043s-2.9568-4.2875-6.0682-4.6499-5.3444 0.98475-5.2032 3.3384z" fill="#f1a689"/>
  <path d="m501.54 358.9c0.13681 2.3339 2.7494 4.514 5.8298 4.8719s5.468-1.2388 5.3267-3.5727-2.9215-4.2505-6.002-4.6094-5.2958 0.97833-5.1546 3.3102z" fill="#f0a589"/>
  <path d="m501.59 358.89c0.13681 2.3131 2.723 4.4729 5.7725 4.8279 3.0495 0.35544 5.4106-1.229 5.2738-3.542s-2.895-4.2139-5.9446-4.5693c-3.0495-0.35396-5.2385 0.97141-5.1017 3.2835z" fill="#f0a48a"/>
  <path d="m501.63 358.88c0.13681 2.2923 2.6965 4.4329 5.7151 4.7839s5.3576-1.2186 5.2208-3.5104-2.8642-4.1773-5.8828-4.5288-5.1899 0.96498-5.0531 3.2553z" fill="#f0a488"/>
  <path d="m501.68 358.87c0.1324 2.2721 2.6656 4.3923 5.6533 4.7399s5.3003-1.2077 5.1634-3.4798c-0.13239-2.2696-2.8333-4.1397-5.821-4.4882s-5.1326 0.95806-4.9957 3.2281z" fill="#f0a388"/>
  <path d="m501.73 358.86c0.1324 2.2508 2.6391 4.3523 5.5959 4.6959 2.9568 0.34505 5.2429-1.1973 5.1105-3.4486-0.1368-2.2493-2.8068-4.1036-5.7592-4.4482-2.9568-0.34308-5.084 0.95213-4.9472 3.201z" fill="#f0a288"/>
  <path d="m501.77 358.85c0.13239 2.23 2.6126 4.3118 5.5386 4.6514s5.1855-1.186 5.0575-3.417c-0.13681-2.228-2.7759-4.0666-5.7018-4.4077s-5.0266 0.94422-4.8942 3.1733z" fill="#f0a187"/>
  <path d="m501.81 358.84c0.13239 2.2088 2.5861 4.2707 5.4812 4.6079 2.8906 0.33814 5.1326-1.177 5.0002-3.3868s-2.745-4.0295-5.6357-4.3671c-2.895-0.33616-4.9781 0.93829-4.8457 3.1461z" fill="#f0a187"/>
  <path d="m501.86 358.83c0.12798 2.1885 2.5552 4.2307 5.4194 4.5634s5.0752-1.1662 4.9472-3.3547-2.7141-3.9934-5.5783-4.3276-4.9207 0.93136-4.7883 3.1189z" fill="#f09f87"/>
  <path d="m501.91 358.82c0.12798 2.1672 2.5288 4.1897 5.3576 4.5189s5.0222-1.1553 4.8942-3.3235-2.6832-3.9558-5.5121-4.2866-4.8722 0.92444-4.7398 3.0912z" fill="#ef9e86"/>
  <path d="m501.95 358.81c0.12799 2.148 2.5023 4.1501 5.3003 4.4759s4.9693-1.1459 4.8413-3.2924-2.6523-3.9197-5.4547-4.247-4.8148 0.91801-4.6868 3.0635z" fill="#ef9c86"/>
  <path d="m501.99 358.8c0.12799 2.1257 2.4758 4.1086 5.2429 4.4309s4.9119-1.135 4.7883-3.2608c-0.12798-2.1242-2.6258-3.8827-5.3929-4.2065s-4.7663 0.91109-4.6383 3.0363z" fill="#ef9c86"/>
  <path d="m502.04 358.79c0.12798 2.1054 2.4493 4.0685 5.1855 4.3879s4.8545-1.1247 4.731-3.2306c-0.12357-2.1035-2.595-3.8456-5.3312-4.1659s-4.7089 0.90467-4.5853 3.0086z" fill="#ef9b85"/>
  <path d="m502.09 358.78c0.12357 2.0842 2.4184 4.028 5.1237 4.3429 2.7053 0.31688 4.8016-1.1138 4.678-3.199-0.12357-2.0827-2.5641-3.809-5.2694-4.1259-2.7097-0.31441-4.6603 0.89824-4.5324 2.982z" fill="#ef9b84"/>
  <path d="m502.13 358.77c0.12357 2.0639 2.392 3.9875 5.0664 4.2994s4.7442-1.1039 4.6206-3.1683-2.5332-3.7719-5.2076-4.0853-4.603 0.89181-4.4794 2.9543z" fill="#ef9b84"/>
  <path d="m502.17 358.76c0.12357 2.0427 2.3655 3.9474 5.009 4.2554s4.6868-1.0935 4.5677-3.1372-2.5023-3.7348-5.1458-4.0448c-2.6479-0.30749-4.5544 0.88489-4.4309 2.9266z" fill="#ef9983"/>
  <path d="m502.22 358.75c0.12357 2.0214 2.339 3.9059 4.9516 4.2104 2.6126 0.307 4.6339-1.0826 4.5147-3.105s-2.4758-3.6993-5.0884-4.0048c-2.6126-0.30452-4.497 0.87798-4.3779 2.8994z" fill="#ef9883"/>
  <path d="m502.26 358.74c0.11915 2.0002 2.3125 3.8659 4.8942 4.1664s4.5765-1.0728 4.4573-3.0739-2.4405-3.6622-5.0222-3.9647-4.4485 0.87155-4.3294 2.8722z" fill="#ee9783"/>
  <path d="m502.31 358.73c0.11474 1.9809 2.2772 3.8253 4.828 4.1229s4.5235-1.0624 4.4088-3.0428c-0.11916-1.9794-2.414-3.6256-4.9648-3.9247s-4.3911 0.86513-4.272 2.8445z" fill="#ee9783"/>
  <path d="m502.36 358.72c0.11474 1.9591 2.2507 3.7843 4.7707 4.0789 2.5199 0.29513 4.4706-1.052 4.3514-3.0121-0.11475-1.9581-2.3831-3.589-4.8987-3.8846-2.5199-0.29266-4.3426 0.85869-4.2234 2.8178z" fill="#ee9682"/>
  <path d="m502.4 358.7c0.11475 1.9389 2.2243 3.7442 4.7133 4.0344s4.4132-1.0411 4.2985-2.9804-2.3522-3.552-4.8413-3.8436-4.2852 0.85128-4.1705 2.7896z" fill="#ed9482"/>
  <path d="m502.44 358.69c0.11475 1.9176 2.1978 3.7042 4.6559 3.9909s4.3558-1.0312 4.2455-2.9498-2.3258-3.5149-4.7795-3.8031c-2.4582-0.28623-4.2367 0.84485-4.1219 2.762z" fill="#ed9482"/>
  <path d="m502.49 358.68c0.11033 1.8968 2.1669 3.6637 4.5941 3.9464 2.4273 0.28574 4.3029-1.0204 4.1881-2.9187s-2.2905-3.4778-4.7177-3.7625-4.1793 0.83793-4.0646 2.7348z" fill="#ee9482"/>
  <path d="m502.54 358.67c0.11033 1.8761 2.1404 3.6231 4.5368 3.9024s4.2455-1.0105 4.1352-2.8875c-0.11033-1.8746-2.264-3.4412-4.6559-3.7225-2.3964-0.27931-4.1263 0.832-4.016 2.7076z" fill="#ee9282"/>
  <path d="m502.58 358.66c0.11033 1.8558 2.1139 3.5826 4.4794 3.8594 2.3611 0.27782 4.1881-1.0006 4.0778-2.8569-0.10592-1.8543-2.2331-3.4046-4.5941-3.6824-2.3655-0.27536-4.0734 0.82458-3.9631 2.6799z" fill="#ed9182"/>
  <path d="m502.63 358.65c0.11033 1.8346 2.0874 3.542 4.4176 3.814s4.1396-0.98921 4.0293-2.8242c-0.10592-1.8336-2.2022-3.368-4.5324-3.6424s-4.0248 0.81816-3.9145 2.6527z" fill="#ed9181"/>
  <path d="m502.67 358.64c0.10592 1.8138 2.0566 3.5015 4.3558 3.7709s4.0822-0.97883 3.9763-2.7936-2.1757-3.3314-4.475-3.6014-3.9675 0.81025-3.8571 2.624z" fill="#ed9081"/>
  <path d="m502.72 358.63c0.10591 1.794 2.0301 3.4615 4.2985 3.7269s4.0248-0.96893 3.9189-2.763-2.1404-3.2944-4.4088-3.5608-3.9145 0.80431-3.8086 2.5968z" fill="#ed8e81"/>
  <path d="m502.76 358.62c0.10591 1.7728 2.0036 3.4204 4.2411 3.682s3.9675-0.95757 3.866-2.7308c-0.10591-1.7708-2.1139-3.2573-4.3514-3.5208s-3.8616 0.7974-3.7556 2.5697z" fill="#ed8d80"/>
  <path d="m502.81 358.61c0.10592 1.752 1.9771 3.3809 4.1837 3.6385s3.9145-0.94769 3.8086-2.7002c-0.10151-1.7505-2.0786-3.2212-4.2852-3.4808s-3.8086 0.79146-3.7071 2.5425z" fill="#ed8d80"/>
  <path d="m502.85 358.6c0.10592 1.7312 1.9506 3.3404 4.1263 3.595 2.1757 0.25657 3.8572-0.93778 3.7556-2.6695s-2.0522-3.1826-4.2279-3.4402c-2.1757-0.25459-3.7556 0.78454-3.6541 2.5148z" fill="#ed8c7f"/>
  <path d="m502.9 358.59c0.0971 1.71 1.9197 3.2988 4.0646 3.5505s3.7998-0.92742 3.7027-2.6384-2.0212-3.1471-4.1661-3.3997-3.7027 0.77762-3.6012 2.4876z" fill="#ed8a7f"/>
  <path d="m502.94 358.58c0.0971 1.6897 1.8933 3.2593 4.0072 3.5065s3.7468-0.91654 3.6453-2.6067-1.9904-3.1105-4.1043-3.3591-3.6497 0.7707-3.5482 2.4594z" fill="#ed8a7e"/>
  <path d="m502.99 358.57c0.0971 1.6689 1.8668 3.2182 3.9498 3.463 2.083 0.2457 3.6894-0.90663 3.5924-2.5761s-1.9639-3.0734-4.0425-3.3191c-2.083-0.24372-3.5968 0.76427-3.4997 2.4322z" fill="#eb897d"/>
  <path d="m503.03 358.56c0.0971 1.6477 1.8403 3.1782 3.888 3.4185s3.6365-0.89577 3.5438-2.544c-0.0971-1.6467-1.933-3.0373-3.9851-3.2795s-3.5438 0.75784-3.4467 2.405z" fill="#eb877c"/>
  <path d="m503.08 358.55c0.0927 1.6274 1.8094 3.1372 3.8262 3.3745s3.5835-0.8854 3.4864-2.5133c-0.0927-1.6259-1.9021-3.0002-3.9189-3.239s-3.4908 0.75142-3.3938 2.3778z" fill="#eb877c"/>
  <path d="m503.12 358.54c0.0927 1.6066 1.7829 3.0971 3.7689 3.331 1.9904 0.23581 3.5262-0.87501 3.4335-2.4822-0.0971-1.6047-1.8712-2.9632-3.8615-3.1985-1.9904-0.23284-3.4379 0.7445-3.3408 2.3497z" fill="#eb867b"/>
  <path d="m503.17 358.53c0.0927 1.5859 1.7564 3.0566 3.7115 3.286s3.4688-0.86463 3.3761-2.4505c-0.0927-1.5844-1.8403-2.9271-3.7954-3.1584s-3.3849 0.73807-3.2922 2.323z" fill="#ea847b"/>
  <path d="m503.21 358.52c0.0927 1.5651 1.73 3.0171 3.6541 3.2435 1.9286 0.22789 3.4158-0.85523 3.3231-2.4209-0.0927-1.5631-1.8094-2.8895-3.738-3.1174-1.9242-0.22642-3.332 0.73115-3.2393 2.2948z" fill="#ea837b"/>
  <path d="m503.26 358.51c0.0883 1.5439 1.6991 2.9755 3.5923 3.198 1.8977 0.22542 3.3584-0.84387 3.2658-2.3887s-1.7785-2.8524-3.6718-3.0774c-1.8977-0.22246-3.279 0.72472-3.1863 2.2681z" fill="#ea837b"/>
  <path d="m503.31 358.5c0.0883 1.5231 1.6726 2.9355 3.535 3.1545s3.3011-0.83347 3.2128-2.3576-1.752-2.8163-3.6144-3.0373-3.226 0.7183-3.1334 2.2404z" fill="#ea8179"/>
  <path d="m503.35 358.48c0.0883 1.5023 1.6461 2.8944 3.4776 3.1105s3.2481-0.8231 3.1599-2.3264-1.7211-2.7788-3.5526-2.9968c-1.8359-0.21554-3.1731 0.71137-3.0848 2.2127z" fill="#ea8078"/>
  <path d="m503.39 358.47c0.0883 1.4816 1.6152 2.8544 3.4158 3.066s3.1952-0.81222 3.1069-2.2938c-0.0839-1.4811-1.6903-2.7437-3.4908-2.9577s-3.1201 0.70396-3.0319 2.1856z" fill="#ea8078"/>
  <path d="m503.44 358.46c0.0883 1.4613 1.5888 2.8134 3.3584 3.0225s3.1378-0.80283 3.0539-2.2641-1.6594-2.7061-3.429-2.9162-3.0672 0.69754-2.9833 2.1579z" fill="#ea7e77"/>
  <path d="m503.49 358.45c0.0839 1.4405 1.5579 2.7738 3.2967 2.9785 1.7432 0.20762 3.0804-0.79195 3.001-2.2325s-1.6329-2.669-3.3717-2.8762c-1.7388-0.20417-3.0142 0.69061-2.926 2.1302z" fill="#ea7d78"/>
  <path d="m503.53 358.44c0.0794 1.4188 1.5314 2.7323 3.2393 2.9335s3.0275-0.78157 2.9436-2.2019-1.5976-2.6319-3.3055-2.8356-2.9613 0.68468-2.8774 2.104z" fill="#e97c77"/>
  <path d="m503.57 358.43c0.0794 1.3985 1.5049 2.6927 3.1819 2.89s2.9701-0.77119 2.8906-2.1707-1.5711-2.5959-3.2481-2.7951-2.9083 0.67727-2.8244 2.0758z" fill="#e97c77"/>
  <path d="m503.62 358.42c0.0794 1.3778 1.4784 2.6517 3.1245 2.8455 1.6461 0.19724 2.9171-0.76031 2.8333-2.1391s-1.5402-2.5583-3.1819-2.755c-1.6461-0.19379-2.8554 0.67133-2.7759 2.0486z" fill="#e97a76"/>
  <path d="m503.67 358.41c0.075 1.3565 1.4475 2.6112 3.0628 2.8015s2.8598-0.74994 2.7803-2.1079-1.5093-2.5222-3.1246-2.715-2.8024 0.66441-2.7185 2.0214z" fill="#e97a76"/>
  <path d="m503.71 358.4c0.075 1.3358 1.421 2.5706 3.0054 2.7575s2.8024-0.73857 2.7274-2.0768c-0.0794-1.3343-1.4828-2.4851-3.0628-2.6744s-2.7494 0.65798-2.67 1.9937z" fill="#e87975"/>
  <path d="m503.75 358.39c0.075 1.315 1.3946 2.5301 2.948 2.7145 1.5534 0.18538 2.7494-0.72967 2.67-2.0466-0.075-1.3135-1.4475-2.448-3.001-2.6339-1.549-0.18291-2.6965 0.65107-2.617 1.966z" fill="#e87975"/>
  <path d="m503.8 358.38c0.075 1.2942 1.3681 2.4891 2.8862 2.6685s2.6965-0.71829 2.6214-2.014c-0.075-1.2932-1.421-2.412-2.9392-2.5939s-2.6435 0.64415-2.5685 1.9394z" fill="#e87875"/>
  <path d="m503.85 358.37c0.0706 1.274 1.3372 2.449 2.8245 2.626s2.6391-0.70841 2.5641-1.9834c-0.0706-1.273-1.3857-2.3749-2.8774-2.5538s-2.5861 0.63772-2.5111 1.9112z" fill="#e87775"/>
  <path d="m503.89 358.36c0.0706 1.2532 1.3107 2.409 2.7671 2.5815 1.4608 0.17599 2.5817-0.69754 2.5111-1.9522s-1.3593-2.3378-2.8156-2.5133c-1.4608-0.17203-2.5376 0.6313-2.4626 1.884z" fill="#e87673"/>
  <path d="m503.94 358.35c0.0706 1.2319 1.2842 2.3684 2.7097 2.5375s2.5288-0.68765 2.4582-1.9211-1.3328-2.3012-2.7582-2.4732-2.4802 0.62486-2.4096 1.8568z" fill="#e87673"/>
  <path d="m503.98 358.34c0.0706 1.2112 1.2578 2.3279 2.6523 2.4935 1.399 0.16858 2.4714-0.67677 2.4008-1.8899s-1.2975-2.2646-2.6921-2.4327c-1.399-0.16511-2.4317 0.61795-2.3611 1.8291z" fill="#e87573"/>
  <path d="m504.02 358.33c0.0706 1.1914 1.2313 2.2879 2.595 2.4495 1.3681 0.16511 2.414-0.6659 2.3478-1.8583s-1.271-2.2271-2.6347-2.3917-2.3743 0.61053-2.3081 1.8004z" fill="#e87473"/>
  <path d="m504.07 358.32c0.0662 1.1696 1.2004 2.2468 2.5332 2.4055s2.3611-0.6565 2.2905-1.8276-1.2357-2.1915-2.5685-2.3522-2.3258 0.6046-2.2552 1.7742z" fill="#e87472"/>
  <path d="m504.12 358.31c0.0662 1.1494 1.1739 2.2063 2.4758 2.362s2.3037-0.64612 2.2375-1.797-1.2092-2.1539-2.5111-2.3116c-1.3019-0.15424-2.2684 0.59817-2.2022 1.7466z" fill="#e87472"/>
  <path d="m504.16 358.3c0.0662 1.1281 1.1474 2.1663 2.4184 2.3175s2.2463-0.63524 2.1845-1.7653c-0.0662-1.1266-1.1783-2.1173-2.4493-2.2716s-2.2198 0.59175-2.1536 1.7194z" fill="#e87272"/>
  <path d="m504.21 358.29c0.0662 1.1078 1.121 2.1252 2.3567 2.2735s2.1978-0.62537 2.1316-1.7337c-0.0618-1.1069-1.1474-2.0807-2.3876-2.232s-2.1625 0.58532-2.1007 1.6922z" fill="#e87171"/>
  <path d="m504.25 358.28c0.0574 1.0871 1.0901 2.0857 2.2949 2.2295 1.2136 0.14732 2.1404-0.61498 2.0786-1.703s-1.1165-2.0437-2.3258-2.1905c-1.2092-0.14386-2.1139 0.5774-2.0477 1.664z" fill="#e86f70"/>
  <path d="m504.3 358.27c0.0574 1.0663 1.0636 2.0446 2.2375 2.1855 1.1783 0.14336 2.083-0.6041 2.0257-1.6719-0.0618-1.0648-1.0901-2.0071-2.2684-2.1504-1.1739-0.1404-2.0566 0.57048-1.9948 1.6368z" fill="#e86f70"/>
  <path d="m504.34 358.26c0.0574 1.0451 1.0371 2.0046 2.1801 2.141 1.1474 0.14041 2.0301-0.59322 1.9683-1.6403-0.0574-1.0441-1.0592-1.9705-2.2022-2.1104-1.1474-0.13694-2.008 0.56455-1.9462 1.6096z" fill="#e86e70"/>
  <path d="m504.39 358.24c0.0574 1.0248 1.0106 1.9641 2.1228 2.098 1.1165 0.13644 1.9727-0.58383 1.9153-1.6096-0.0574-1.0238-1.0283-1.9334-2.1448-2.0704-1.1121-0.13298-1.9506 0.55763-1.8933 1.5819z" fill="#e76d6f"/>
  <path d="m504.43 358.23c0.0574 1.0035 0.98415 1.923 2.0654 2.053 1.0856 0.13348 1.9153-0.57295 1.858-1.578-0.053-1.003-0.99739-1.8973-2.0786-2.0303-1.0857-0.12903-1.9021 0.5517-1.8447 1.5552z" fill="#e76c6f"/>
  <path d="m504.48 358.22c0.053 0.98327 0.95325 1.883 2.0036 2.0096s1.8624-0.56258 1.805-1.5473-0.96648-1.8598-2.0212-1.9888-1.8447 0.54379-1.7874 1.5266z" fill="#e76c6f"/>
  <path d="m504.52 358.21c0.053 0.96201 0.92677 1.842 1.9462 1.9651 1.0194 0.12605 1.805-0.5522 1.752-1.5157-0.0574-0.96053-0.94-1.8227-1.9595-1.9487-1.0239-0.1226-1.7962 0.53786-1.7388 1.4994z" fill="#e76a6f"/>
  <path d="m504.57 358.2c0.053 0.94174 0.90029 1.8019 1.8888 1.9211s1.7476-0.54181 1.6947-1.484-0.90911-1.7866-1.8977-1.9092-1.7388 0.53094-1.6858 1.4722z" fill="#e7696d"/>
  <path d="m504.61 358.19c0.053 0.92048 0.8694 1.7614 1.8271 1.8776s1.6947-0.53143 1.6461-1.4539-0.87822-1.7495-1.8359-1.8687c-0.96207-0.11469-1.6902 0.525-1.6373 1.445z" fill="#e6676d"/>
  <path d="m504.66 358.18c0.0485 0.90071 0.83851 1.7214 1.7653 1.8336 0.93119 0.11518 1.6417-0.52106 1.5888-1.4223s-0.84733-1.7129-1.7741-1.8286c-0.92678-0.11123-1.6329 0.51808-1.5799 1.4173z" fill="#e7666d"/>
  <path d="m504.7 358.17c0.0485 0.87897 0.81203 1.6803 1.7079 1.7891s1.5843-0.51066 1.5358-1.3911-0.81644-1.6759-1.7123-1.7881-1.5843 0.51166-1.5314 1.3901z" fill="#e7666d"/>
  <path d="m504.75 358.16c0.0485 0.8587 0.78555 1.6403 1.6505 1.7456 0.8694 0.10778 1.5314-0.50028 1.4828-1.36s-0.78997-1.6398-1.655-1.7476c-0.86499-0.1048-1.527 0.50425-1.4784 1.362z" fill="#e6656c"/>
  <path d="m513.83 359.99s-3.6938-5.8616 2.1845-3.2692c0 0-0.22066 2.6898-2.1845 3.2692z" fill="#f4b891"/>
  <path d="m513.88 359.9s-3.535-5.6129 2.0919-3.1298c0 0-0.21184 2.5741-2.0919 3.1298z" fill="#f4b38b"/>
  <path d="m513.92 359.81s-3.3761-5.3642 1.9992-2.9914c0 0-0.1986 2.4609-1.9992 2.9914z" fill="#f2af85"/>
  <path d="m513.97 359.72s-3.2216-5.1166 1.9065-2.8534c0 0-0.19418 2.3472-1.9065 2.8534z" fill="#f2a97f"/>
  <path d="m514.02 359.63s-3.0672-4.8689 1.8138-2.715c0 0-0.18094 2.2335-1.8138 2.715z" fill="#f2a579"/>
  <path d="m514.06 359.54s-2.9083-4.6197 1.7212-2.5761c0 0-0.17212 2.1198-1.7212 2.5761z" fill="#f09e74"/>
  <path d="m514.11 359.45s-2.7538-4.3721 1.6285-2.4386c0 0-0.16329 2.0066-1.6285 2.4386z" fill="#ef9a6e"/>
  <path d="m514.15 359.36s-2.595-4.1244 1.5358-2.3002c0 0-0.15447 1.8924-1.5358 2.3002z" fill="#ef9469"/>
  <path d="m514.2 359.27s-2.4405-3.8752 1.4431-2.1618c0 0-0.14564 1.7792-1.4431 2.1618z" fill="#ee8f62"/>
  <path d="m514.24 359.18s-2.286-3.6276 1.3504-2.0234c0 0-0.1368 1.6645-1.3504 2.0234z" fill="#ec875a"/>
  <path d="m528.55262,354.41739c.0441.24124-.15446.48298-.44132.54131s-.56489-.0855-.61344-.32627c-.0441-.24026.15446-.48249.44132-.54181s.56489.088.61344.32677z" fill="#9e2c14"/>
  <path d="m523.08906,355.29885c.0485.24075-.15005.48249-.44132.54131s-.56489-.0865-.60902-.32627c-.0485-.23976.15004-.48249.44132-.54181s.56489.0875.60902.32677z" fill="#9e2c14"/>
  <path d="m523.57936,358.75664c.0441.24025-.15446.48199-.44574.54033s-.56489-.086-.60902-.32578 .15005-.48249.44132-.5428 .56489.088.61344.32825z" fill="#9e2c14"/>
  <path d="m529.76572,349.39826c.0441.23828-.15005.48101-.44132.54082s-.56489-.0875-.61344-.32775c-.0441-.24026.15446-.482.44132-.54182s.56489.088.61344.32875z" fill="#9e2c14"/>
  <path d="m525.37485,352.48017c.0441.24025-.15005.48298-.44132.5428s-.56489-.088-.61344-.32875c-.0441-.24026.15005-.48298.44132-.54231s.56489.088.61344.32826z" fill="#9e2c14"/>
  <path d="m525.32651,356.28126c.0485.24125-.15005.48299-.44132.5433s-.56489-.089-.60902-.32825c-.0485-.24026.15004-.4825.44132-.54182s.56489.087.60902.32677z" fill="#9e2c14"/>
  <path d="m507.15299,357.10567c.0441.23878-.15446.48101-.44132.54182s-.56489-.0875-.61344-.32776c-.0441-.24026.15005-.48249.44132-.54132s.56489.0875.61344.32726z" fill="#9e2c14"/>
  <path d="m508.73785,359.50788c.0441.23976-.15446.48199-.44132.5428-.29569.0578-.56489-.089-.61344-.32924-.0441-.24026.15446-.48249.44574-.54132s.56047.0875.60902.32776z" fill="#9e2c14"/>
  <path d="m504.24454,357.2211c.0441.24025-.15005.48298-.44132.5428s-.56489-.088-.60902-.32825c-.0486-.24026.15004-.48299.44132-.54132s.56489.0875.60902.32677z" fill="#9e2c14"/>
  <path d="m511.22621,358.36038c.0441.23877-.15005.4815-.44132.54082s-.56489-.087-.60902-.32776c-.0485-.23927.15004-.4815.44132-.54082s.56489.0865.60902.32776z" fill="#9e2c14"/>
  <path d="m503.42 365.1c0.0706-0.14485 1.6638 1.0456 4.603 1.6497 1.4608 0.306 3.2393 0.45776 5.212 0.36581s4.1307-0.41376 6.3683-0.94915c1.1298-0.27141 2.1977-0.54874 3.1995-0.95608 1.0063-0.39746 1.9551-0.86513 2.8377-1.3521 1.7697-0.97982 3.2879-2.0442 4.4971-3.0279 2.4361-1.9611 3.5746-3.6409 3.6806-3.55 0.10152 0.0618-0.88703 1.9542-3.2923 4.118-1.1916 1.0836-2.7053 2.2389-4.5059 3.2929-0.90027 0.52499-1.8712 1.0263-2.9171 1.4539-0.52518 0.21307-1.0636 0.40834-1.6241 0.57197s-1.1122 0.30354-1.6858 0.44096c-2.2816 0.54527-4.5015 0.85227-6.536 0.89034s-3.8704-0.18835-5.3664-0.59817c-1.5005-0.40241-2.6568-0.97487-3.4026-1.4529s-1.0989-0.84337-1.068-0.89724z" fill="#26231f"/>
  <path d="m510.68745,367.8127c-.009-.0648.27361-.19379.81644-.24422s1.32396-.005 2.26397.18489c.94001.18243 2.03449.49881 3.23047.85821 1.19598.35444 2.50228.76674 3.87479,1.00353 .68404.11767 1.35483.17402 1.9859.13496 .3134-.0213.61794-.0677.90476-.14138 .14559-.0395.28682-.0816.41929-.13644 .12799-.045.30892-.13496.28682-.12211l.0176-.0193c.0221-.0593.0397-.11914.0529-.17945 .0265-.12112.0398-.24768.0353-.38264 0-.26941-.0529-.57394-.0927-.90318s-.0397-.68912.0265-1.0243 .19417-.63129.33988-.876c.29568-.49089.6443-.81717.94873-1.08164 .30903-.26053.59147-.45234.82535-.59669 .47223-.28722.75467-.39153.78552-.33418s-.18979.28128-.58699.65848c-.37509.38114-1.00178.91554-1.42545,1.72678-.2074.41179-.27358.84634-.16769,1.40445 .0442.28179.12361.60263.14559.99268 .009.19378 0,.40338-.0397.61299-.0176.10481-.0441.20862-.0751.30947-.022.0732-.0573.1488-.0838.22345-.0397.0682-.0486.17104-.12799.18884-.29131.17055-.40157.22444-.57375.29711-.1632.0712-.33101.12853-.50308.18093-.33976.0994-.69725.16067-1.05473.1928-.71497.0588-1.45196.00099-2.18014-.1226-1.46077-.2541-2.78032-.70396-3.97189-1.10884-1.18715-.41081-2.2419-.79146-3.13337-1.05743-.89588-.2709-1.62406-.42119-2.13599-.48891s-.79879-.0771-.80761-.15028z" fill="#26231f"/>
  <path d="m524.17 366.06s0.0794 2.9815-0.66198 3.1258c-0.74583 0.14287-6.686-1.0129-6.686-1.0129s5.821-0.56604 7.348-2.1129z" fill="#da013c"/>
  <path d="m513.08888,358.53096c-.053.0262-.21625-.19428-.39277-.61794-.0838-.21356-.17653-.47903-.20742-.81618-.009-.16858-.009-.35841.053-.55516 .053-.19527.17653-.38857.33099-.51611s.32658-.20219.48104-.24866c.1986-.0509.32217-.04.47222-.0386 .28686.0134.54282.0756.74582.16907s.35307.22147.43251.33665c.075.11618.0794.20417.0574.2195-.0574.0356-.21624-.1488-.58254-.21307-.18094-.0371-.40601-.0573-.65315-.0455-.11474.007-.26921.0193-.35306.0509-.11916.0405-.2339.0954-.32658.17352-.36629.29117-.22507.96547-.14563,1.36787 .0883.42565.15005.70496.0883.73363z" fill="#26231f"/>
  <path d="m535.20343,357.09257c0,.0687-.13682.15226-.38395.25212-.24714.0934-.62226.20663-1.06358.14089-.44574-.0608-.80762-.34704-.97532-.59718-.17653-.25163-.20742-.44838-.16329-.48397 .11033-.0915.51193.49138 1.20039.57938 .34423.0534.68405.0124.94443.008 .26038-.009.43691.0302.44132.10085z" fill="#26231f"/>
  <path d="m503.93994,366.76835c-.1015-.0845.0706-.55714-.0574-1.13899-.0927-.59224-.44573-.89479-.4016-1.0248 .0221-.0588.17653-.0657.37071.0806 .19859.14188.4016.45134.47663.83595 .075.38461.009.75093-.10151.97437-.11033.2284-.24272.31095-.28686.27289z" fill="#26231f"/>
  <path d="m521.63 348.56c0.34423 1.138 0.12798 3.2069-0.61785 3.9929l0.61785-3.9929z" fill="#26231f"/>
  <path d="m521.01075,352.5515c.16329.26102 1.05476-.51709 1.17833-1.80637 .18094-1.26258-.32216-2.29776-.56048-2.18653-.23831.0994-.20742.94867-.35747,2.0051-.11915,1.07275-.41925,1.75991-.26038,1.9878z" fill="#26231f"/>
  <path d="m519.9 349.22c0.68405 0.96992 0.85175 2.6596 0.5031 3.767l-0.5031-3.767z" fill="#26231f"/>
  <path d="m520.4057,352.99118c.21183.12556.71934-.76279.59578-1.97792-.1677-1.22303-.94443-1.9789-1.09889-1.78907-.20742.20961.0441.92494.17653,1.883 .0971.96498.0662,1.752.32658,1.88399z" fill="#26231f"/>
  <path d="m519.03 349.93c0.86058 0.60262 1.2886 2.0254 1.0239 3.0413l-1.0239-3.0413z" fill="#26231f"/>
  <path d="m520.05765,352.97374c.21183.12557.6664-.73559.34864-1.82515-.37953-1.08363-1.30189-1.45934-1.3725-1.21711-.12357.28475.2339.78553.49869,1.51718 .21625.75339.25597,1.4005.52517,1.52508z" fill="#26231f"/>
  <path d="m521.71627,351.81862c.5693.64562.52076,1.69563-.11033,2.3467s-1.60641.65552-2.17571.0119c-.56489-.64711-.51193-1.69514.11916-2.34621s1.60199-.657 2.16688-.0124z" fill="#26231f"/>
  <path d="m509.25 351.39c0.6002 0.99662 0.88264 3.0536 0.34864 4.0344l-0.34864-4.0344z" fill="#26231f"/>
  <path d="m509.60283,355.4283c.22066.20219.89588-.81272.71053-2.09162-.12357-1.27197-.85616-2.12127-1.05917-1.94281-.20301.1661.0221.97636.13239,2.03921 .13681,1.07078.0132,1.82171.21625,1.99522z" fill="#26231f"/>
  <path d="m507.74 352.55c0.89147 0.72967 1.452 2.3111 1.3769 3.4812l-1.3769-3.4812z" fill="#26231f"/>
  <path d="m509.12105,356.03194c.23389.0588.51635-.94818.11033-2.08322-.45015-1.13157-1.38133-1.6284-1.48725-1.39902-.15005.263.26479.87797.62226,1.76089 .31775.90368.47662,1.67092.75466,1.72135z" fill="#26231f"/>
  <path d="m507.08 353.49c0.9709 0.32578 1.7212 1.5716 1.7079 2.629l-1.7079-2.629z" fill="#26231f"/>
  <path d="m508.78637,356.11906c.22949.0603.46781-.90713-.1015-1.86174-.61784-.93433-1.59758-1.02084-1.6064-.76773-.053.31144.41043.68765.83851,1.31597 .38394.66195.57812,1.27296.86939,1.3135z" fill="#26231f"/>
  <path d="m510.11402,354.51109c.69728.45431.90029,1.48257.44573,2.29578-.45456.81569-1.39015,1.10933-2.09186.65749s-.90029-1.48207-.44573-2.29627c.45456-.81618 1.39016-1.10983 2.09186-.657z" fill="#26231f"/>
  <path d="m543.6 363.64s6.8714 3.4274 7.6216 8.2112-0.38396 28.748-2.6435 29.311-12.957-2.6883-12.957-4.6588-1.7785-25.309-0.52517-27.279c1.2578-1.9695 4.4838-5.5837 8.5042-5.5837z" fill="#26231f"/>
  <path d="m515.03 424.09c0.25149 0.84434 5.0222 15.762 2.008 17.169s-34.171-11.54-34.171-11.54 0 1.6888-2.0081 1.6888-6.0328-1.4069-6.2843-2.2513-1.0018-2.8144-1.0018-2.8144l-32.164-7.8815s0.92677-19.134 3.0151-18.576c15.83 4.2218 32.163 23.08 33.668 23.643 0.33976 0.12603 0.33101 0.83893 3.5173 0.28175 19.347-3.3774 33.421 0.28129 33.421 0.28129z" fill="#26231f"/>
  <path d="m551.2 407.76s-37.186 13.229-36.934 16.325 3.2658 17.169 3.2658 17.169 33.17-19.984 33.668-21.672 2.7671-12.948 0-11.822z" fill="#26231f"/>
  <path d="m513.98 374.15s-2.3875 0.46914-4.3998-0.6565-3.5439-3.6765-4.9826-1.6427c-4.1352 5.8408-6.7125 19.632-6.7125 19.632s9.7973 2.8144 10.552 5.0666c0 0 3.4909-4.9929 6.28-10.977 1.218-2.6047 3.0318-9.452-0.73707-11.423z" fill="#26231f"/>
  <path d="m473.56 459.55s-2.9216 10.009-5.6931 10.164c-6.4344 0.36036-23.213-12.01-22.485-13.993 2.2525-6.127 23.906 0.17056 25.159 1.2952 1.2578 1.1256 3.5173 1.1256 3.0186 2.5336z" fill="#26231f"/>
  <path d="m471.71 457.99s30.729-22.948 32.777-22.489 7.1008 4.4373 6.0107 4.5896-34.008 15.758-37.287 18.512c-1.2358 1.0392-1.7741 3.8248-2.8686 3.6721s-17.644-4.9752-15.98-5.8136c2.7318-1.3769 10.243 0.61196 11.748 1.0707s5.6004 0.45877 5.6004 0.45877z" fill="#f4b891"/>
  <path d="m489.47 429.26s-14.661 37.614-15.914 40.991c-1.2578 3.3775-5.5297 10.695-3.5217 10.414s5.2782-8.4441 7.039-9.0066 13.566-26.075 22.609-37.897c2.4582-3.2128-9.4575-4.5006-10.212-4.5006z" fill="#26231f"/>
  <path d="m477.58 467.15s5.5385 7.8528 3.782 12.919c-0.91351 2.6226-15.596 18.93-19.489 15.671-1.9815-1.6596-0.24272-7.6245 0.7635-10.72 1.0018-3.0961 9.9208-16.744 14.943-17.87z" fill="#26231f"/>
  <path d="m488.91 434.12s-12.975 31.975-13.796 35.034-9.2368 13.645-7.6481 14.534c3.279 1.836 10.106-12.545 10.106-12.545s0.6443-2.6053 0.95759-3.5193c2.0478-5.9664 16.254-30.598 15.843-31.363s-4.7794-3.6716-5.4636-2.1415z" fill="#f4b891"/>
  <path d="m504.71 332.81s-9.025 11.761-3.8969 16.696c0 0 3.6938-4.8096 3.8969-3.6819s-1.1474 3.3388 2.2154 3.0822c0.60458-3.6073 3.7733-9.4486 2.7671-5.1659s0.29119 5.7656 2.0477 5.9361c1.5623-4.3706-0.26472-7.5171 1.7565-7.2769-1.0062 2.9301 3.4026 6.0078 4.2058 4.8803-2.3699-1.7985-0.0176-7.0421 0.76354-5.5654 1.4519 2.7402 7.4891 9.3324 7.1847 6.5067-0.33987-3.1649-3.716-7.1266-1.0151-5.6841 1.8933 1.0115 3.1687 2.5524 5.0531 1.8864-1.8138-2.4796-2.4095-4.5346-1.8049-4.7596s3.2922 2.0961 5.6665 0.98625c-1.8094-4.2826 2.1582-0.30006 3.5659-2.1035s-4.6647-9.3101-9.4-11.815c-5.5033-2.9113-13.363 0.45628-14.771 2.7106s-3.6674-1.7762-8.235 3.368z" fill="#26231f"/>
  <path d="m536.27 371.52s-0.46339 23.329 1.1739 23.647c6.7434 1.313 11.726 2.9553 11.726 2.9553s1.1738-23.976 0.88255-26.275c-0.29568-2.2988-5.7327-6.0939-7.039-6.2402-2.9304-0.32776-6.4521 1.6427-6.7434 5.9125z" fill="#fce900"/>
  <path d="m504.89 372.84s-6.4477 16.422-5.2782 17.078 9.3825 4.2698 9.3825 4.2698 5.5739-10.51 5.8652-13.795c0.29568-3.2835-2.0521-5.5828-3.8131-6.2398s-5.2737-2.9552-6.1564-1.3135z" fill="#fce900"/>
  <path d="m521.9 375.79s-1.7609 10.181 1.7565 9.5242 6.4521-13.137 6.4521-13.137-1.4652 2.6275-3.5173 1.9705-4.4-0.32825-4.6912 1.6422z" fill="#f4b891"/>
  <path d="m444.23 400.91s-2.4436 14.95-1.1285 15.792 31.391 8.0021 31.391 8.0021 0 1.6843 0.56489 2.5261 2.0699 2.106 3.5747 2.5271 2.4405 0.21063 2.4405 0.21063l1.3152-1.8954 33.275 10.95-4.1351-14.95s-19.175-1.053-27.26 0.8418c0 0-4.5102 1.0526-6.3903 0s-23.496-21.056-33.647-24.004z" fill="#c7b172"/>
  <path d="m516.04 424.07s1.1254 14.95 2.6303 14.108 31.206-17.478 31.391-18.951 2.0698-10.317 0.93998-9.2647-33.456 11.791-34.961 14.108z" fill="#edc79b"/>
  <path d="m446.86 399.85s24.251 13.476 30.641 22.952c0 0 25.376-3.3691 34.966-0.84238l38.157-12.845s-20.491-4.6326-41.917 1.8954c0 0-2.2551 0-3.0097-0.84238s-12.22-17.477-22.746-20.425c-2.7583-0.77268-36.091 10.108-36.091 10.108z" fill="#fdf7b4"/>
  <path d="m538.79 398.17c-0.4016 0.4469-2.2552 8.0016-0.94002 8.0016s7.5201 0.63179 7.5201 0.63179l0.18536-7.5804s-5.8254-2.1055-6.7654-1.053z" fill="#f4b891"/>
  <path d="m499.88 392.7s-1.5049 4.2109-1.1298 5.2644 3.3849 4.8432 3.3849 4.8432l2.6303-8.2122s-4.1352-3.5801-4.8854-1.8954z" fill="#f4b891"/>
  <path d="m517.04 441.26s-3.3364-4.8209-1.549-6.0731 35.557-21.542 36.228-19.038c0.67077 2.5054-0.52081 3.4387-0.52081 3.4387s-32.834 22.485-34.158 21.672z" fill="#26231f"/>
  <path d="m517.06 436.44s0 3.2568 1.5667 2.2553 31.978-19.038 32.199-20.04c0.22501-1.0026-1.1165-0.75191-1.1165-0.75191s-31.978 16.783-32.649 18.536z" fill="#e20415"/>
  <path d="m483.29 426.42c-1.5667 0-0.8959 2.5044-2.6832 2.004s-4.6956 0-4.6956-1.5033-2.0124-3.507-2.0124-3.507-30.86-8.2661-31.754-8.7674-2.2366-0.75093-2.2366 0.75191 0.67081 3.507 0.67081 3.507 30.844 4.8338 31.294 7.3386c0.44576 2.5054-0.1456 5.1141 5.3312 6.3772 6.1432 1.4174 6.7433-1.5235 7.8598-2.0243s32.662 10.101 32.662 10.101c0.12799-0.35495 1.2048-3.631-2.2374-5.2604-9.2943-4.4032-31.056-9.0175-32.199-9.0175z" fill="#26231f"/>
  <path d="m441.25 416.15s-1.2485 2.6206 0.15844 2.3126 31.595 6.7054 31.595 6.7054l1.4918-0.46074s-33.469-9.81-33.245-8.5573z" fill="#e20415"/>
  <path d="m483.74 427.67s32.203 8.2671 32.428 9.5193c0.22063 1.2517-0.49871 1.8336-0.49871 1.8336s-31.259-9.5989-31.479-10.1c-0.22508-0.50079-1.3416-1.5033-0.45015-1.2527z" fill="#e20415"/>
  <path d="m473.57 426.34s0.0177 1.925 0.82968 2.5331 2.8906 2.3279 4.2455 2.3279 5.1988-1.4203 5.5386-2.2795-0.75025-2.0728-1.1077-1.3649-1.3328 2.2978-3.5262 2.1257c-3.8836-0.30354-4.7001-1.8217-4.7883-2.9355s-0.85175-0.51067-1.1916-0.40686z" fill="#e20415"/>
  <path d="m471.93 426.1c-0.31329 0.34902-4.3824 4.7977-7.3171 4.7977s-4.678-1.6146-6.5139-3.3942c-1.8315-1.7802-6.0443-9.6498-4.4529-9.239s5.3356 3.9894 5.821 2.8935 0.24714-4.7918 1.346-2.6013 0.44573 2.7555 1.2401 2.6448c0.24714-1.9171 0.22508-3.8772 1.2048-2.3709s1.3858 3.8762 1.5844 3.0393c0.44565-1.8706 1.5932-2.7649 1.9594-0.84831s0.95333 2.6097 1.5888 3.0116c1.9595 1.2319 4.1484 1.3822 3.5394 2.0669z" fill="#26231f"/>
  <path d="m509.74 437.58c-0.33539 0.31985-4.3204 3.9371-7.2464 3.678s-4.3602-0.26943-6.0593-2.2062-3.2878-11.958-1.7344-11.408c1.5579 0.55121 1.9992 4.7102 2.5641 3.6612s0.57814-4.7557 1.5226-2.4742 0.6355 4.1298 1.015 2.2404 0.53399-3.3394 1.4034-1.7505c0.86498 1.5884 0.50752 4.8111 0.88705 2.9221s2.2596-2.3685 2.489-0.42466 1.8801 2.8109 2.489 3.2697c1.8624 1.401 3.3276 1.8642 2.67 2.4925z" fill="#26231f"/>
  <path d="m454.38 419.81s3.8527 6.6911 6.3241 7.753c4.2808 1.841 8.9102-1.4499 8.513-2.0076s-0.94447-0.16758-1.3946-0.94816-1.6947-3.9049-2.0919-2.9562 0.19866 2.9562-1.143 2.6769c-1.346-0.27832-0.94885-4.4611-1.6947-4.0156s-0.15005 4.072-1.143 3.7373c-0.99738-0.33518-0.7988-4.4067-1.3946-4.1827s-0.34864 3.8486-1.1474 3.1228c-0.79439-0.72521-5.3753-4.5184-4.828-3.1797z" fill="#f4b891"/>
  <path d="m494.57 429.23s1.3946 6.6931 2.7891 7.8088 3.8351 1.1711 5.3267 1.1153c1.4961-0.0549 5.8784-1.1153 5.3268-1.3382s-2.9348-1.2838-3.1864-2.2315-0.94442-3.848-1.4431-3.0111-0.29568 3.7368-1.4916 3.1792-0.39279-4.6499-0.99739-4.6855c-0.94443-0.0558 0.19859 4.6296-1.3946 4.0156s-0.48986-5.4928-1.346-4.7967c-0.54723 0.44641-0.49428 5.0207-1.0415 4.1837s-2.4405-6.0801-2.542-4.2396z" fill="#f4b891"/>
  <path d="m512.96 330.84s-3.0496-0.0554-5.2694 1.486-5.9225 6.1912-6.9331 8.8781c-1.5093 4.0097-0.94883 8.2408 0.1986 7.2131 1.143-1.0273 3.4423-5.0771 3.9013-3.8782s0.53842 4.6227 1.3019 3.5955 1.4519-6.1646 2.6744-6.5922 2.1404-0.8563 1.986 0.34206-0.7635 6.1646 0.2295 6.5922-0.30453-6.1636 1.3018-6.8487c1.602-0.68516 2.445-0.94182 2.061 0.25654s0.15445 3.4244 1.8359 4.7948c0 0-1.068-5.1378 0.99292-5.7364 2.0654-0.59919 1.8359 0.17103 2.5244 1.1127s5.8078 6.7642 5.1944 5.5654-3.6674-7.1063-2.2155-7.4484 6.2668 3.8529 5.7328 2.8252-4.6603-6.0786-2.5993-5.6505c2.0654 0.42761 7.1096 4.2806 6.1916 2.3967s-1.0723-4.8803 0.2295-3.767 4.2013 3.3389 4.0514 1.8835-2.7628-5.078-4.9781-6.5334-6.3417-4.55-9.2147-4.1061c-4.0999 0.63376-5.7549-0.83249-9.1971 3.6192z" fill="#780f1a"/>
  <path d="m498.29 335.1s-1.9815 2.7733-2.3787 6.5467-0.89147 7.4361 0.49427 8.6571 2.9745 1.2201 2.9745 0.44346-1.5888-3.3286-0.89588-5.6599c0.69729-2.3309 1.8844-6.2145 1.6858-7.4356s-0.69288-3.6617-1.88-2.5518z" fill="#0083c2"/>
  <path d="m498.68 335.44c-0.3663 0.37077-3.3673 7.5458-2.5729 12.318l0.59136 1.7752s0.3972-8.2123 2.083-12.208c0 0 0.89146-2.8846-0.1015-1.886z" fill="#8fd5f2"/>
  <path d="m499.67 337.21s0.69287 5e-4 -0.29569 3.108-1.5888 5.1042-1.4872 7.657c0 0-0.99297-1.4425 0.69287-6.5477 0.56489-1.7169 0.98856-5.1052 1.0901-4.2173z" fill="#11b9e7"/>
  <path d="m544.01 367.14s4.5809 0.69951 4.7927 4.6682-0.8341 25.214-0.8341 25.214-5.6268-2.8015-7.7099-2.5677c0 0 2.4979-0.46763 2.7053-1.401s3.7512-18.443 3.129-20.544c-0.62667-2.101-3.129-5.8364-2.083-5.3687z" fill="#fecc00"/>
  <path d="m512.54 376.94s2.2905 2.3338 0 6.5364-3.7512 9.3383-3.7512 9.3383-5.6312-3.502-8.1291-3.502c0 0 5.4194 1.1672 6.0417-0.2333 0.62667-1.401 5.212-7.0035 5.4194-8.4045s0-4.9025 0.41925-3.7349z" fill="#fecc00"/>
  <path d="m518.16 379.51c0.31774-0.64513-2.5023 6.303-3.7512 11.906s1.0415 5.1364 1.0415 6.0698-2.0874 8.6383-2.0874 8.6383 12.3-3.0354 14.383-2.5682-4.7927-3.7353-7.7098-4.202 0.62226-3.5015 3.1245-3.7353-3.7512-1.401-5.0002-2.5682 1.6638-3.5015 1.6638-3.5015-2.7053-7.9374-1.6638-10.039z" fill="#76b617"/>
  <path d="m521.64 385.86s1.4872-3.2049 4.347 0c1.6682 1.8677 5.3488-3.988 6.1829-2.8198s1.2445 13.161-0.85619 10.93c-2.3478-2.4916-5.896-2.9825-5.896-2.9825s-2.5464 2.8836-4.0072-0.38509c-0.58696-1.3199-5.8828 5.1675-6.0946 3.0669s-0.34864-8.7505 1.6329-10.374c0.50312-0.41328 3.8572 2.5642 4.6912 2.5642z" fill="#26231f"/>
  <path d="m516.95 384.96s-1.0283 2.6923-0.45898 6.2813c0 0 4.0072-2.4352 4.9207-2.3072 0.91796 0.12805-0.11473 2.0511 1.9462 2.1796 1.0856 0.0672 2.061-1.923 2.6303-1.667s4.8104 1.5384 4.8104 1.5384 1.0283-7.4346 0-6.2808-3.5483 3.2049-4.581 2.6918-1.7564-2.2088-2.8598-1.2819-1.8315 1.1533-1.8315 1.1533-4.806-3.8456-4.5765-2.3077z" fill="#fce900"/>
  <path d="m541.8 367.47c-0.42807 0.16857-2.9524 0.50769-3.5173 2.5405-0.5693 2.0328 0.56489 20.2 0.56489 20.2s-0.45014-17.405 1.0239-18.675 3.5129 0 3.4026-1.27 0.45015-3.5574-1.474-2.7951z" fill="#fdfad2"/>
  <path d="m509.82 375.22s-3.076-1.6413-3.7424-1.143c-2.3831 1.7782-4.6515 13.085-4.6515 13.085s3.2878-9.2736 4.9913-9.6548 4.9869-1.7782 3.4026-2.2869z" fill="#fdfad2"/>
  <path d="m478.12 472.6s-6.7875 13.596-10.609 12.526c0 0-1.7212-0.21511-1.2401-1.9275s6.2094-10.705 6.2094-10.705 0-0.963-2.008 1.7129c-2.0036 2.6759-9.175 13.488-8.0276 17.342s5.4503-0.7495 6.8846-1.7125 9.9386-9.8495 10.508-11.562-0.0926-7.6002-1.7168-5.6732z" fill="#0083c2"/>
  <path d="m470.57 463.5s-0.86057 3.3186-2.4847 3.3186-19.497-8.7783-19.497-10.813 6.9764-3.2108 19.4 0.85722c0 0-14.842-3.0388-15.292-1.178-0.66684 2.7832 15.102 7.9225 17.874 7.8148z" fill="#0083c2"/>
  <path d="m478.92 422.95s-26.811-32.106-29.353-32.883-2.0808 1.2942-2.0808 1.2942 30.282 32.106 31.434 31.588z" fill="#26231f"/>
  <path d="m448.18 390.06s33.052-7.2497 36.292-5.6969c3.2349 1.5538 22.587 23.905 21.232 25.805s-24.701 13.293-26.784 12.775-30.74-32.883-30.74-32.883z" fill="#26231f"/>
  <path d="m449.79 390.84s28.473 30.665 29.82 30.554c6.2403-0.51815 26.347-11.653 25.424-12.429-0.92674-0.77609-19.648-23.562-21.267-23.562s-33.977 4.1427-33.977 5.4374z" fill="#fefbde"/>
  <path d="m497.64 417.25s-5.5474 2.3299-3.4688 2.3299 16.876 0.77714 19.418 0 6.9331-2.848 6.0107-2.848c-0.92674 0-19.418-0.25904-21.96 0.51809z" fill="#eb602b"/>
  <path d="m512 332.9s-7.3833-0.4202-10.389 8.972c-1.9771 6.182-1.0018 5.0469-1.0018 5.0469s2.2507-5.7478 3.5041-5.4671 1.752 4.9065 1.752 3.9252-0.49869-6.0276 3.0054-6.7292 2.0036 1.2616 2.0036 1.2616-0.0397 6.1894 0 5.7478c0.0618-0.76723 0.87379-7.2907 2.6259-7.8508s0.37509 2.9444 1.0018 4.9064 0 0 0 0 0.12349-3.2242 1.5005-3.9251 5.1326 4.7675 7.5112 6.7292c0 0-6.0107-7.5706-3.7556-7.9908 2.2507-0.4202 6.0064 3.505 6.0064 3.505s-4.8811-6.168-1.6285-5.6075c3.257 0.5606 5.8827 2.5232 5.8827 2.5232s-2.3787-3.9252-1.5005-4.2055c0.87381-0.28031 4.506 1.1217 4.506 1.1217s-6.258-8.2716-11.39-7.01-8.6322 3.3646-9.634 5.0469z" fill="#a4082b" fill-rule="evenodd"/>
  <path d="m537.4 326.87s3.0054-7.9908 6.3859-11.075c0 0-1.2534 4.2055-0.75465 5.0464s-1.3769 5.8882-1.3769 5.8882 8.8793-14.712 17.772-14.159c2.2552 0.1404-2.5023 1.8227-2.5023 1.8227s-7.2596 3.7853-9.1353 8.5514-0.37512 3.3651-0.37512 3.3651 2.5023-2.3837 7.5068-2.804c0 0-7.0081 3.2237-7.0081 4.3454s5.3841 0.1403 10.389 1.9625l-3.129 1.5424s0.87818 1.1222 2.2552 3.6449c1.3725 2.5231-1.1298-2.6636-4.0073-2.3833s2.2508 4.9064 2.0036 6.5887-2.6303-4.9065-6.3814-4.9065c-3.7556 0-5.5077 1.1217-6.0108 0.70104s-5.8828-7.1494-5.6312-8.1307z" fill="#a4082b" fill-rule="evenodd"/>
  <path d="m497.1 332.62s-2.7538-10.234-14.643-11.636c0 0 3.7556 1.402 4.6294 3.6449 0.8782 2.2434-3.7512-1.8222-5.2561-2.2429s-0.24714 2.103-0.24714 2.103 6.8802 1.5414 6.5051 4.7661-10.261-2.9434-11.262-2.6631 2.7538 1.9621 6.0064 4.0651c3.257 2.103 3.7556 4.0656 3.7556 4.0656l-8.01-0.84146s6.1344 0.7015 6.633 2.2434-5.7548 2.9433-5.0046 2.9433 5.0046-1.2616 5.2561-0.28026-8.01 3.505-8.01 3.505 0.12358 0.9813 1.5005 0.42021 11.514-1.4015 13.266 0.28072l1.752 1.6823s2.0037-11.215 3.129-12.056z" fill="#a4082b" fill-rule="evenodd"/>
  <path d="m511.62 334.3c-0.37512 0.14039-6.761-0.4207-8.7646 6.7292 0 0 4.2587-5.6075 9.2633-5.0469l-0.49869-1.6823z" fill="#c40034" fill-rule="evenodd"/>
  <path d="m513.38 333.46s2.5023-4.3464 10.261-4.0656c0 0-7.2597 1.9631-9.2633 5.4676 0 0-1.8756-0.14039-0.99738-1.402z" fill="#c40034" fill-rule="evenodd"/>
  <path d="m543.79 331.5s8.7602-3.505 11.262 6.0282c0 0-3.129-7.2898-10.512-4.6262l-0.75024-1.402z" fill="#c40034" fill-rule="evenodd"/>
  <path d="m493.48 339.35s-8.8882-3.6454-14.519 2.5227c0 0 8.6366-4.907 13.394-0.98129 0 0 1.6241-1.1217 1.1254-1.5414z" fill="#c40034" fill-rule="evenodd"/>
  <path d="m521.4783,343.07266c-.0353.0746-.51193-.19824-1.09888-.84486-.58697-.63821-1.31956-1.60666-2.0036-2.7768s-1.18715-2.33038-1.35927-3.25976c-.0883-.46173-.0794-.86859.004-1.13257 .0838-.26696.21183-.3594.2339-.33617 .0309.0252-.0309.14979-.0441.38214s.0265.57395.15005.98575c.23832.82655.76791,1.91413 1.43429,3.05362s1.3372,2.12622 1.84473,2.81387c.50751.69555.86939,1.05397.8385,1.11478z" fill="#e20157" fill-rule="evenodd"/>
  <path d="m528.76944,336.68521c-.0397.0658-.47221-.18241-1.11213-.66144-.64433-.47211-1.49608-1.17954-2.48905-1.83406-.98855-.65996-1.95946-1.06237-2.69205-1.13603-.73259-.085-1.19597.0712-1.21804-.0133-.0265-.0578.41925-.36632 1.2357-.38214 .81203-.0272 1.90208.35989 2.92595,1.04754 1.03269.6827 1.85795,1.44895 2.44932,2.00066 .58254.55861.93561.91504.9003.97881z" fill="#e20157" fill-rule="evenodd"/>
  <path d="m529.14414,333.60111c-.0706.0465-.31776-.42464-.9003-.94717-.57371-.52897-1.52256-1.03172-2.65233-1.31202-1.12538-.29019-2.18896-.38412-2.95685-.46717s-1.25335-.13792-1.25335-.21752 .48104-.15423 1.26218-.17846 1.87561.0124 3.06276.31688c1.18274.29118 2.21101.90417 2.77591,1.56414 .57371.65551.71051,1.21908.66198,1.24132z" fill="#e20157" fill-rule="evenodd"/>
  <path d="m560.67673,331.76796c-.0441.0613-.78115-.58927-2.20211-1.10983-1.41222-.53934-3.45116-.98574-5.72838-1.18447s-4.36025-.13496-5.84309.0702c-.7414.10035-1.33278.23927-1.73438.36286s-.61343.22592-.63109.18933c-.0177-.0306.17212-.20219.56931-.39499 .39277-.1923.98855-.39598 1.74321-.54873 1.50049-.31145 3.61883-.44146 5.93134-.23779 2.31694.2017 4.39561.71978 5.81657,1.37234 1.43432.63475 2.13156,1.43115 2.07862,1.48108z" fill="#e20157" fill-rule="evenodd"/>
  <path d="m554.82 314c0.0176 0.0791-0.9003 0.38016-2.1713 1.3357-1.2798 0.93532-2.9039 2.4787-4.5015 4.3928s-2.8862 3.8189-3.6541 5.294c-0.38395 0.73708-0.63109 1.3694-0.73701 1.8226s-0.0574 0.71244-0.0971 0.72476c-0.0265 0.0183-0.15446-0.25908-0.0927-0.76573 0.053-0.50135 0.26038-1.188 0.61785-1.9705 0.71053-1.5681 1.9727-3.545 3.5968-5.4888s3.3187-3.4733 4.678-4.3459c1.3593-0.89577 2.3522-1.0713 2.3611-0.99909z" fill="#e20157" fill-rule="evenodd"/>
  <path d="m539.90323,324.62868c-.0618.008-.1677-.32084-.14122-.87649 .0177-.5522.21625-1.30906.59578-2.02241 .37954-.71582.82527-1.26851 1.16509-1.63829s.58254-.5606.63549-.50968-.0971.33863-.36629.76674c-.26478.42911-.64874,1.00107-1.00179,1.66548s-.57372,1.30807-.67964,1.79599-.13239.81272-.20742.81866z" fill="#e20157" fill-rule="evenodd"/>
  <path d="m491.84861,337.80604c-.0397.0134-.10152-.22196-.40169-.48497-.29119-.26941-.78552-.56307-1.43419-.84385-1.2931-.56457-3.17314-1.09105-5.27383-1.54091-2.10509-.4469-4.02484-.73956-5.41942-.89577-.69728-.0776-1.26217-.11815-1.65053-.12952-.39277-.0153-.60019.0148-.61343-.0237s.203-.14188.6046-.19379c.39719-.0559.97091-.0761 1.68144-.0479 1.41664.0559 3.36727.28821 5.49002.74005s4.02041,1.04951 5.32237,1.72777c.64867.33665 1.14738.70199 1.42545,1.05001 .29119.34654.30005.64563.26921.64266z" fill="#e20157" fill-rule="evenodd"/>
  <path d="m492.85 335.42c-0.0662 0.0341-0.25596-0.29711-0.59578-0.79295s-0.83409-1.1444-1.4564-1.7906c-1.249-1.2868-2.414-2.1796-2.3302-2.3235 0.0618-0.11716 1.3637 0.56703 2.6744 1.9136 0.64874 0.6748 1.1386 1.4084 1.4122 1.9858s0.35306 0.97833 0.29568 1.0075z" fill="#e20157" fill-rule="evenodd"/>
  <path d="m494.6 332.2c-0.0706 0.0287-0.35306-0.75933-0.95325-1.9384-0.6002-1.1741-1.5358-2.7462-2.8554-4.1758-1.3151-1.4386-2.7847-2.368-3.9233-2.7708-1.1386-0.41625-1.9065-0.41575-1.9065-0.50721-4e-3 -0.0613 0.78114-0.20911 2.0036 0.12606 1.2225 0.32084 2.8112 1.2527 4.1705 2.7486 1.3769 1.486 2.2904 3.1466 2.8244 4.3953 0.534 1.2561 0.69729 2.1015 0.63992 2.1223z" fill="#e20157" fill-rule="evenodd"/>
  <path d="m511.12024,336.40484c.0132.0707-.49868.25558-1.2048.82508-.70611.55664-1.62847,1.4361-2.48022,2.56767s-1.43429,2.31705-1.59758,3.24347c-.18094.92889.0397,1.51767-.0397,1.54535-.0265.0143-.11915-.11172-.20742-.38609s-.15446-.70099-.1015-1.22057c.0883-1.0495.6708-2.36696 1.56227-3.54304s1.88885-2.04761 2.67882-2.54246c.78996-.50968 1.38574-.57444 1.39015-.48941z" fill="#e20157" fill-rule="evenodd"/>
  <path d="m526.79657,341.8615c-.053.0588-.42808-.25706-1.05034-.72176-.62226-.4726-1.51814-1.04951-2.5067-1.74112-.99296-.68468-1.83148-1.50234-2.25956-2.24882-.43249-.74054-.52517-1.28433-.47221-1.30608 .0706-.0361.27803.44047.75466,1.06682 .47221.63524 1.271,1.33772 2.24631,2.01498s1.86679,1.33131 2.44933,1.89784c.58696.5601.88264.98475.83851,1.03814z" fill="#e20157" fill-rule="evenodd"/>
  <path d="m510.66543,347.21057c-.0662.0005-.13681-.62388-.14123-1.6378s.0794-2.41443.26921-3.94199c.14563-1.60715.84733-2.86676 1.27541-3.72595 .45457-.86462.69287-1.41929.75908-1.39358 .0618.0227-.0662.64859-.44133,1.57253-.35747.92544-.96649,2.14007-1.09888,3.62166-.18536,1.51667-.32217,2.8885-.41043,3.88611-.0838.99712-.13681,1.61902-.21183,1.61902z" fill="#e20157" fill-rule="evenodd"/>
 </g>
</svg>
